<svg xmlns="http://www.w3.org/2000/svg" height="144.672" width="144.672" xml:space="preserve" y="0" x="0" id="Layer_1" version="1.1">
  <defs/>
  <style id="style833" type="text/css">
    .st2,.st3{stroke-width:6.490000e-02;stroke-miterlimit:2.6131}.st3{stroke:#063068;}.st2,.st3,.st4{fill-rule:evenodd;clip-rule:evenodd}.st2{stroke:#063068;;fill:#063068;}.st3{fill:white}.st4{fill:#063068;}
  </style>
  <g transform="translate(-221.864 -274.664)" id="g1655">
    <circle r="72" id="ellipse835" cy="347" cx="294.2" fill="white" stroke="#063068" stroke-width=".672" stroke-miterlimit="2.613"/>
    <circle r="49.5" id="ellipse837" cy="347.2" cx="294" fill="none" stroke="#FFF" stroke-width=".504" stroke-miterlimit="2.613"/>
    <path id="path839" d="M276.2 381c-1.2 0-1.2-1.4 0-1.4.8.2.8 1.2 0 1.4zm37-1.6h1.5c-.2.4-.3.6-.7.7-.5 0-.8-.3-.8-.7zm-50.7-2h64.6v1.5h-64.6zm2.6-1.8h59.5v1.4h-59.5zm47.1-1.2h8v.7h-8zm-21.4 0h8v.7h-8zm-21.3 0h8v.7h-8zm43.9-8.3v-.4l.4-.1h5.1v8.3h-5.5zm-21.3-.4h5.5l.1.4v7.8h-5.5v-8.2zm-21.3 0h5.5l.1.4v7.8h-5.5v-8.2zm35.2 2c.4 0 1.5-.3 1.6.7.1.9-1 5.3-.4 6.8h-1.4c.6-1.3.6-1.1.4-2.5zm-43-.2c.4.2.7.3.7.8 0 .4-.4.7-.8.7-.8.1-1.2-1.1.1-1.5zm-6.4-9.3c.8.1 1.2.1 2 .5 1.2.6 3.3 3.4 4.7 2.4l.2.2c-.1.4-.2.1-.6 1.8-.2 1 .2.7-.3 2.2-.5 1.4-1.1 2-1.9 3.1 2.9-1.1 3.9-5.1 8.5-7.4 1.8-.9 4-1.4 5.9-2.1 1.9-.6 3.9-1.5 4.4-3.6-.7-1.2-1.6-3.9-2.4-4.9-.4.9-.2 1.6-1.2 2.6-.6.6-2.1.9-2.8 1.1-2 .6-4.2.5-6.1 1.8-1.4.9-3.2 2.5-4.7 3-2.3.7-2.8-1.2-4.4-1.2-.6 0-.6 0-1.2.3-.3.1-.1 0-.1.2zm47.7 9.7c.1.2 1.1 5.9.9 6.3-.4.3-1.3.4-1.7.9h1.9c.1-.2.1-.4.3-.7.3-.5.3-1.2.2-1.8-.1-.6-.2-4.1-.4-4.7-.3-.2-.7-.3-1.2 0zm22.6-.6c-.6.5-1.2-.1-1.1-.8zm-19-1.3c0 .2-.1.9-.2 1.1l-.4-.8zm-47.6-.6c0-1.2 1.4-1.2 1.4 0-.2.8-1.2.8-1.4 0zm59.1-.1c-.4.1-4.6.1-5.2.1-.6 0-1.2.1-1.5-.4.2-.3.2-.3.6-.4 1.1 0 6 0 6.3.1l.1.4c-.1.1.1 0-.1.1l-.2.1zm-21-.4c-.2.6-1 .5-1.6.5h-3.9c-.6 0-1.3.1-1.5-.5.3-.4 1.2-.3 1.7-.3h3.7c.6 0 1.3-.2 1.6.3zm-21.3 0c-.2.6-1 .5-1.6.5h-3.9c-.6 0-1.3.1-1.5-.5.3-.4 1.2-.3 1.7-.3h3.7c.6 0 1.3-.2 1.6.3zm30.1.2c0 .4-.2.5.3.8l.6-.4.1-1-.8-.2c-.4.5-.2.4-.2.8zm-3.2 1.3c0 .4 0 .9.3 1.2.6-.1.8-.1 1.4 0 0-.2-.1-1.5-.1-1.8-.1-.3 0-.6 0-.9 0-.4-.3-.4.1-.7.2.3.2 3 .3 3.3.3.1 1.1-.3 1.7.4.1-.6-.7-1.6-1.1-2.9-.2-.6-.9-2.6-1-3.1-.3.4-1.6 4-1.6 4.5zm13.9-2.2h-1.7c-.9 0-2.7.2-3-.3.2-.6.8-.4 1.3-.4h3.4c.5 0 1-.2 1.3.3-.2.6-.8.4-1.3.4zm-20-.4c-.2.6-.8.4-1.3.4h-3.4c-.6 0-1.2.2-1.3-.4.3-.4.9-.3 1.4-.3h3.3c.5 0 1-.1 1.3.3zm-27.4-.1c.3-.3 2.6-.2 3-.2.6 0 2.6-.2 3 .2-.1.6-.6.4-1.1.4-.9 0-4.3.1-4.8 0zm56.9-.1c.1-.4.2-.7.6-.8 1.3-.2 1.2 1.8-.1 1.4-.3-.1-.4-.3-.5-.6zm-20 .5c.1-.8.5-1.8.9-2.5.3.5.2 2.3-.2 2.8zm6.4-2c0-.4.1-.3.1-.6v-2.1c.3.1.8.4 1.2.5l3.6 1.3.1 1.9h-5zm-21.3 1c0-2.3.2-4.7.2-7 0-.5.1-.7.1-1.7l.2-5.2c.2.1 1.6.2 1.9.2.4 0 1.7-.1 2 0 .2.5 0 1.2.1 1.7 0 .4.1.4.1.8v.9c0 .6.1 1.1.1 1.7 0 1 .1 1.3.1 1.7 0 .6 0 1.1.1 1.7 0 .1.1 3.3.2 4.3v.9zM276 359l.2 4.1h-5c0-.9-.1-1.8.1-2.6zm27.9 4.4c.1-.1.4-.3.6-.5.3-.2.3-.3.6-.5l-1.2 3.2zm2.5-1c.2.3.7 1 .8 1.2 0 .8-.3.7-.2 1.6-.2-.2-.7-1.7-.8-2-.1-.5-.7-1.7-.4-2.1.1.3.4.9.6 1.3zm-5.5-2c.3-.3.6-.2 1-.2.2.5.1.8 0 1.3-1 .7-1.1-.4-1-1.1zm6.3 2.9c-.4-.3-.8-1.2-1-1.6-.5-1.1-.4-.9-.2-2.1.2.1.5.7.7.9l.8.8c.1.4-.1 1.4-.3 2zm-5-3.2c.3-.3.9-.6 1.3-.7l.1 1.1c-.3.2-1 .5-1.4.5.1-.3 0-.5 0-.9zm28.1 0c.1.7-.3.9-1 .9zm-28.7-.3c-.3.1-.2 0-.4.1l-.5.1c.4-.3.4-.2.9-.2zm-.4 2.2c-.1-.1-1.1-.6-.5-2.3.5-.2.7 0 1.2-.2 0 0-2.1-.5-2.1.7.1.8.5 1.9 1.4 1.8zm-43.8-3.3c.4.1.9.3 1.2.5-.2.2-.5.3-.8.1-.2-.1-.4-.3-.4-.6zm46.4.6c0-1.1-.4-2.2.1-3.2.3.3.8 1.3 1.1 1.7.4.6.9 1.2.9 1.7-.2 1.2-.6 2.8-1.9 3.4zm26.3-2.1c-.3-.5-.1-1 .5-1.1.5-.1 1 .4.8.9-.2 0-1.2.2-1.3.2zm-25.7-1.8l-.4.3c.2.9 2.9 4.9 3.6 5v-.9c-.8-.7-2.8-3.4-3.2-4.4zm1.1-.4l-.7.7 1 1.5c.1-.6 0-1.8-.3-2.2zm1.1.8c.5-.1.6-.4.9-.8 1 .6 1.6 1.2 1.5 2.2 0 .5.1.7.1 1.2 0 1 0 3.8-.4 4.5-.1-.6.1-1.2-.2-1.7-.5.2-.5.6-.8 1 0-.4.3-4.2-.1-4.9-.3.4 0 1.6 0 2.1-.3-.2-1.1-1.3-1.4-1.6-.2-.4-.1-.9-.1-1.4 0-.3-.1-.9-.2-1.2zm22.2 11.9c-.4-.5-1.5-1.5-1.7-2.7-.1-.8-.2-1.1-.4-1.8-.2-.5-.7-1.3-.8-1.4 1.1-.1 1.2-.1 2.2-.6 2-1 2.7-2.5 4.1-3.5l.2-.2c.1-.1.1 0 .1-.2-2.9-.2-3.6 1.6-6 1-2.8-.6-3.8-2.7-7.2-3.9-2-.7-3.6-.9-5.3-2-1-.6-1.2-1.1-1.8-1.9-.6.7-1.6 3.6-1.1 5.2 1.3 3.9 7.3 4.3 10 5.9.9.5 1.9 1.3 2.6 1.9.4.4.8.7 1.1 1.1.4.4.6.8 1.1 1.3.6.7 2.2 1.7 2.9 1.8zm-21.7-13.5l.3.6-.7.7-.7-.5zm-2.4 1.2c-.2-.3 0-.5.2-.8l.4.2zm-.2-3.4v.3l.8.2c0 .6 0 .4-.2.8.3.1 0-.1.4.1-.2.1-.2.1-.5.1 0-.6.2-.4.2-.8-.2.2-.3.2-.7.1.3.7.1 1.3.9 1.8.6-.2.6-.5 1-.5-.1.3-.2.2-.3.5l.9-.6c0-.3 0-.4.1-.7.1-.3.1-.4.1-.7-.2-.3-1.9-1.1-2.7-.6zm14.2-1.4c.6.3 1.9 1.6 1.9 2.6 0 .7-.1.7-.7.9-.1.3 0 .1 0 .3l-1.2-.4zm-47.2-.3c1.3-.5 2.6-1.3 4-1.2l.2 3.6c-.3.5-3.8 1.2-4.2 1.4-.1-.6-.1-1.3 0-1.9.1-.6 0-1.3 0-1.9zm33 2.4c.1-.2-.3-.2.3-.1zm9.7-3.6h.5c.8 0 2.9.6 3.5 1.2l.1 1.8v.9c0 .4.1.4.1.8-.8 0-3.7-1-4.3-1.6-.1-.3 0-1.8.1-2.2zm-6.9 2.2c.3.3.6.8.6 1.2-.4.1-1-.3-1.3-.6zm-1.2.5c0-.2.6-.9.9-.8.1.2-.1.9-.9.8zm-37.1.6c.1-.7.2-.8.8-1.2.4-.3 1-.6 1.4-.6-.1.5 0 1.7-.1 2.1-.7.1-1.8.3-2.1-.3zm35.2-.7c-.2-.3-.4-1.1-.5-1.5.4.1.8.3 1.4.4.5.1 1 .1 1.6.3l-1 .9c-.5-.3-1 0-1.5-.1zm8.2-1.5c.5-.8.7-.6 1.3-1 .1.6.1 2-.1 2.6-.6-.5-.8-.9-1.2-1.6zm-36.4-1c.9.4 1 .4.7 1.4-.1.4-.4 1.4-.7 1.6zm-12.3 1.2c.1-1.1 2.8-3.4 3.7-4 2.9-2 9.6-3.8 11.9-1.8.8.7-.3 1.9-.7 2.6-.4.7-1 1.7-1.5 2.3-.9-.6-1.3-.9-2.6-.6-.9.2-1.6.5-2.5.8-.8.3-1.5.6-2.3 1.1-1.3.7-1.1 1-1.1 2-1-.2-4.2-1.5-4.9-2.4zm48.6-.8c-1.3-3.3-3.6-3.9-2.2-5.1.4-.4 1.3-.8 1.8-.9 5.7-1.5 11.5 2.1 14.5 6.9.7 1.2 2 2.8-.2 3.2-.7.1-4.6.3-5.2.3.2-1.4 0-1.7-.9-2.7-.6-.6-1.3-1.2-2.1-1.6-1.1-.6-1.6-.7-2.8-.9-1.6-.3-2.2.3-2.9.8zm-19.2-8.3c0-.1 0-.2.1-.3.1-.2 0-.1.2-.2h3.1c.1.4.2 2.5.1 2.5-.8.3-2.6.2-3.5.1zm-21.4 2.7l3.5-.6c.1-.9 0-1.6-.1-2.5-.4 0-3.1-.1-3.2 0-.3.2-.1 1.2-.1 1.5 0 .3-.1 1.4-.1 1.6zm42.7-1.2l2.6.3c.3 0 .6.2.9.2 0-.1-.1-2.3-.1-2.3-.5-.2-2.7-.1-3.3 0-.1.6-.1 1.2-.1 1.8zm-33.8-1.4c-.7-.1-1.2-.8-2.1-.5 0 .1-.4.3.1 1.1.3.6 2 1.9 2.5 2.3 1.2 1 2.5 1.7 3.9 2.4 2.6 1.3 8.3 2.7 11.1 2.2.4-.1 1 0 2.2-.2.9-.2 1.7-.4 2.6-.6 2.8-.9 5.8-2.7 8.1-4.6.8-.7 2-1.5 2.2-2.7 0-.5-.2-.9-.6-1-1 0-1.2 1.1-1.7 1.2l-.3-4.2c-.2 0-1.1 1.1-1.2 1.3-.9 1.1-3.1 2.9-4.4 3.5-1.3.7-2.3 1.2-3.7 1.6-.7.2-1.3.3-2.1.5-.3.1-.9.1-1.2.2-.5 0-.8 0-1.3.1-.3 0-.7-.1-1.1-.1-.5 0-.8-.1-1.2-.1-1.8-.2-4.3-1.1-5.9-2-2.4-1.4-3.9-3.1-5.5-5.1-.3.5 0 1.7-.1 2.3-.3 1.2-.2 1.5-.3 2.4zm-5-1.1c-.2.4-.4.3-.9.3-.9 0-2.8.1-3.3-.2.4-.5 1.4-.3 2.1-.3.6 0 1.7-.2 2.1.2zm42.7 0c-.5.4-1.6.2-2.2.2-.5 0-1.7.2-2-.2.4-.4 1.6-.2 2.2-.2.5 0 1.7-.2 2 .2zm-21.4.1c-.5.4-1.5.2-2.1.2-.5 0-1.7.2-2-.2.4-.4 1.5-.2 2.1-.2.9-.1 1.8-.3 2 .2zm18.7-.7c.3-.4.7-.4 1.1 0zm-21.3 0c.3-.4.7-.4 1.1 0zm-21.3 0c.1-.5.7-.4 1 0zm5.6.9c0-.3 1.6-3.4 1.8-3.7.1.9 0 1.3-.1 2v2c-.5 0-1.2-.5-1.7-.3zm30.2-3.6c.3.4 1.7 2.2 1.7 2.7-.9.1-.8.3-1.5.7 0-.7-.3-2.9-.2-3.4zm-16.2 6.5c.1-.9.1-1.6.1-2.5-.1-.3-.1 0-.5-.6.2-.8.8-.6 1.5-.6.3-.1.3-.6 1-.6.2 0 .4.1.6.2.3.2.1.3.4.4h1.1c.8.2.7.7.1 1.2v1.2c.1.4 0 .9.1 1.3 1.5.1 5.1-1.6 6.6-2.6 1.3-.9 4-3.2 4.7-4.5H281c.2.6 1.6 2.1 2.1 2.6 1.5 1.5 3.7 3 5.7 3.8.9.1 2.9.7 3.8.7zm-23-7.7c0-.6.7-.4 1.2-.4h47.8c.5 0 1-.1 1.2.2-.4.3-5.3.1-6.2.1zm.7-.7c-.3-.1-.2-.2-.4-.5-.3-.5-.8-1.1-1-1.5h51.8l-1.2 2zm-3.4-3.1h55.4v.7h-55.4zm10.6-.5c.2-.9 2.1-3.8 2.7-4.4.6-.6 1.1-1.2 1.7-1.8 3.3-3.3 8-5.1 12.7-5.1 3.7 0 7.8 1.2 10.7 3.5 1.3 1 2.7 2.2 3.7 3.4.6.8 2.5 3.5 2.6 4.4zm-7 0h6.4c.3-.4 1.1-2.7 2.8-4.6 1.2-1.3 2.3-2.6 3.8-3.6 3.6-2.4 6.7-3.6 11.1-3.6 6.8 0 12.8 3.6 16.3 9.3.3.4 1.2 2.3 1.3 2.4h6.4c-.1-1.5-2.5-5.7-3.4-7.1-2.7-4-7.3-7.5-11.8-9.3-7.9-3.1-17.8-1.7-24.5 3.8-1.8 1.5-3.8 3.4-5.1 5.4-.8 1.6-3.2 5.9-3.3 7.3zm-.5 0h-3.6v1.6c2 0 1.9-.1 3.1 1.9l-.4.4c-.1 1.2 1.1.9 2 .9 1.7 0 7.8-.1 9.1 0l-1.2 2.4c-1 2.1-1.8 3.2.5 4.8.7.5 1.3 1.2 2.1 1.7 1.4 1 3.2 2 4.8 2.6 2 .6 3.9 1.3 6 1.5 0 2.3-.2 4.6-.2 7l-.1 3.5c-.1.8-.1 2.5-.2 3.5-.7.1-.6.6-.5 1.1-.3.3-.5.3-.4.9.1.6.5.3.7.7v8.1h-1.3v1.1h-12.6V374h-1.1v-8.3c1-.2 1.3-1.1.3-1.5 0-.7.2-.6-.4-1.1-.1-1 0-3.6-.2-4.3.7-.5 1.5-.7 2.3-1.4 2.1-2.1 1.1-2.8 0-5.1-1.5-3.3-1.7-1.7-.1-4.6.9-1.5 2.4-3.1 0-4-1-.4-1.8-.3-2.9-.4 0-.5-.3-2.1-.1-2.5.2-.2.5-.2.4-.6 0-.8-1.1-.5-1.6-.5-.3-.1-.7-1.4-1.8 0-.4.1-2-.1-1.7.7l.4.5-.1 3.2c-.9.6-4.3.9-7.4 5-.6.8-.9 1.3 0 2 .8.7 3.3 1.6 4.3 1.9 1.1.3 1.7.2 2.8 0 0 .4-.1.7-.1 1.1-2.2.2-4.1 1.2-5.8 2.6-.5.4-1.1.8-1.7 1.1-1.8 1.2-2.4.9-4-.1s-2.9-.6-3.9.8c.5-.1 1-.1 1.5-.1 0 .6.1.9.7 1.1.6.2.8 0 1.3-.3 1.4 1.1 1.8 2 3.8 2.3-.4.9-.2 3.3-.8 3.7-.1-.6 0-.9-.7-1.2-1.2-.4-2 1.2-1 1.9.7.5.9.1 1.4 0-1 1.9-1.8 2.2-2.4 2.9 1.1 0 1.6-.6 2.4-.8.1 1.9 2.5 1.2 2.2-.2-.1-.5-.4-.6-.8-.9.2-.3.5-.6.8-.9.5-.6 1-1.4 1.6-2 .3-.3.7-.6.9-.8.9-.9 3.2-2.5 4.4-2.7.1.9-.1 1.5-.1 2.3-.1.4-1 .2-.5 1.2-.4.3-.2.2-.5.6.2.6.2.6.8.8v8.3h-1.3v1.1h-4.4v1.9h-2.6v2.4h13.3c-1.2 1.8 1.2 2.7 1.8 1.2.2-.5 0-.8-.3-1.2h36c.2.9 1.1 1.4 1.9.8.3-.3.2-.5.4-.7h12.5V377h-2.6v-1.9h-4.4v-1.2h-1.3v-8.2c.4-.3 1.7-.7.3-1.6.3-.5 0-.7-.3-1-.1-.7-.2-1.1-.1-1.8 1.8.9 1.5.3 3.6 1.9 1 .8 2 1.9 2.8 2.9-.1.7-.3 1 .4 1.5.5.4 1 .2 1.5-.1.5.3 1.9.9 2.4.9l.2-.3c-.9-.7-1.6-1.5-2.1-2.4-.3-.5-.2-.9-.3-1.2.5.1.8.4 1.3.1 1.5-.7-.2-3.3-1.6-1.4-.2-.2-.4-.7-.5-.9l2.4-.9c.5 0 .8.2 1.3-.2.4-.4.4-.8.2-1.3.3-.4.9-.9 1.3-1.3s1.4-.9 1.5-1.1c-.4-.5-1-.4-1.6-.5-.2-2.1-2.9-1.2-2.1.4-2.2.9-2.8 1.2-5.2-.3-1.3-.8-1.9-1.5-3.1-2.1-.4-.2-.9-.4-1.2-.6 1.8-.2 4.5 0 6.3-.4 1.7-.4 1.4-1.8.7-2.9-1.4-2.4-3.3-4.6-5.7-6.2l-1.5-.9c-1.8-.9-1.7-.1-1.7-2 0-.5-.1-.6-.1-1.2l.4-.3v-.6c-.5-.4-.9-.3-1.5-.3-.3-.1-.2-.1-.4-.4-.8-.7-1.3.3-1.5.4-.8 0-1.4-.2-1.6.6.6 1.1.5-.3.5 2.5-1.5.1-3.1.3-4.2 1.3-1.3 1.2-.2 2 .8 3.4.4.5 1.2 1.8 1.3 2.3-.2.6-.7 1.7-1 2.4-.4 1.3-.6 2.9 0 4.2.6 1.4 2.5 2.5 2.5 2.6l-.1 4c-.6.5-.7.2-.6 1.2-1.1 1.2.2 1.2.3 1.6v8.1h-1.1v1.2H308c-.8-1 .2-5.5.3-7.1 0-.4.1-1 .2-1.4.1-.5.1-.9.2-1.4.1-.7 0-.7.4-1.3.7-1.6.6-4 .7-5.9 0-.4 0-.4-.1-.7v-.8c-.2-.8-1-1.2-1.5-1.7-.3-.3-.4-.7-.6-1.1l.2-.9c.5 0 .6.1.9-.4-.5-2-1.7-1.8-3.3-2.1-.5-.1-1-.4-1.5-.4-.1.4-.1.2 0 .5 0 .2.1.4.1.6.1.6.1.6.6.9.2.8 0 .9.3 1.9.2.7-.2 1-.6 1.4-1.1 1.1-.4 2.4-.6 3.7l-1.5.8c.1-.3.2-.1.2-.6-.8-.5-.5.3-.5-2.9l.2-5c0-.5.1-.7.1-1.2v-1.3c-.9.7-.8 3.1-1 4-.2 1.2-.1 2.4-.2 3.6 0 .3-.1.3-.1.6v2.2c-1.4.1-.9 2.3-.1 2.8.7.5 1.1 0 1.5-.4.4-.3.3-.2.8-.4.3-.1.5-.2.8-.3 0 1-.1 4.5 0 5.3.1.6.2 1 .3 1.5.3 1.2 1.1 5.2 1 6.2-.4.1-.7.2-1.1.4-.3.2-.6.6-.9.7h-3.9v-.8h-1.1v-8.3c1-.1 1.3-1.1.3-1.5.2-1.1-.3-.7-.4-1.3-.1-.6.1-1.4 0-2l-.2-5.7c0-.4-.1-.5-.1-.9l-.2-5c3.3 0 7.9-2.4 10.5-4.4 1.1-.8 3.5-2.4 3.7-3.8.1-1.1-.6-1.8-1.2-2.6-.5-.7-1-1.5-1.5-2.2h11.1c.4-.4.4-.7.1-1.2 1.1-1.9 1-2 2.8-2v-1.6h-3.5c-.5-.7-1.3-4.3-3.5-7.2-.8-1-1.4-2.1-2.4-3l-2.8-2.6c-4.2-3.6-10.3-5.6-15.9-5.6-6.2 0-11.1 2-15.9 5.6-2.8 2.1-5.7 5.7-7.2 8.9-1 1.4-1.4 2.5-1.9 3.9z" class="st2"/>
    <path id="path841" d="M294.7 398c.4 0 .5-.1.9-.1 2.5 0 2.1.2 4.4 1.7.1.1.2.1.3.2.3.2.1 0 .2.3-2.3.2-2.3.6-3.5-.3-.2-.1-2.2-1.6-2.3-1.8zm-3.5-.1c.4.5 2.9 2.6 3.1 2.7h2.7c-.1-.3-2-1.6-2.3-1.9-1.5-1.3-2.4-.4-3.5-.8zm6.9 0c.6.6 1.9 1.3 2.6 1.8.8.5.7.4 1.7.3.5-.1 1.5-.2 1.8-.3-.7-.5-1.9-1.1-2.6-1.6-.7-.5-1.1-.4-1.6-.3-.7-.1-1.4-.1-1.9.1zm-10.3-.3l1.9.2c.9.2.8 0 1.5.7.5.5 1.9 1.6 2.3 2.1l-2-.1c-.7 0-1-.2-1.5-.6-.5-.6-1.8-1.8-2.2-2.3zm13.7-.1c.6-.1 1.2-.2 1.7-.3.9-.2.8-.2 1.6.2.5.2 2.6 1.1 2.9 1.3-2.8.7-2.5 1-4.5-.2-.5-.3-1.4-.6-1.7-1zm-17.1-.4c.3.5.8.8 1.1 1.2.2.3.8.9 1 1.2.8.8.4.6 1.5.7l2 .2c-.6-.9-1.5-1.5-2.3-2.2-.6-.6-.5-.7-1.4-.8-.5-.1-1.3-.3-1.9-.3zm20.3-.2l.2.2 1.7.7c.6.3 1.3.5 1.9.9l2.7-.9c-.3-.2-2.5-1.1-2.9-1.3-1.5-.5-2.3.3-3.6.4zm-23.5-.6c.4.1 2.3.5 2.5.7l2.6 2.9c-.4 0-1.4-.2-1.9-.2-.9-.1-.9-.1-1.4-.8-.5-.8-1.2-1.7-1.8-2.6zm26.9-.2c.4-.2 1.1-.3 1.5-.5.7-.2 1-.3 1.7-.1.7.2 2.5.7 3.1 1-.3.2-1.1.5-1.5.6-.7.3-1 .5-1.7.2-.5-.1-2.8-1-3.1-1.2zm-30.3-.7l1.8 2.7c.5.7.6.7 1.4.9.5.1 1.4.4 1.8.4-.1-.3-1.6-2.2-1.9-2.7-.5-.6-.8-.6-1.5-.8-.2-.2-1.2-.5-1.6-.5zm33.5-.4c.3.1 1.3.4 1.7.5 2.7.9 1.9.8 3.3.2.4-.2 1.2-.5 1.5-.8-.5-.2-1.1-.3-1.6-.4-2.7-.6-2-.6-4.9.5zm-41.8-.5c-.5-.2-1-.5-1.5-.8-.7-.4-.9-.4-1.2-1.1-.5-1-.7-2.4-1.2-3.3.4.1 1 .6 1.4.9.6.4.9.4 1.2 1.1.4 1.1.9 2.2 1.3 3.2zm5.2-.3c.5.1 1.1.4 1.6.6 1.4.6 1.3 1.1 2.2 2.3.3.4.6.9.9 1.3-.4 0-1.3-.4-1.7-.5-.8-.2-.9-.1-1.4-.9-.5-.8-1-1.9-1.6-2.8zm39.8-.4c.4-.3.9-.4 1.4-.7.6-.3.8-.5 1.6-.5.4 0 3.3.5 3.5.7l-2.4 1.3c-1.5 0-2.7-.6-4.1-.8zm-42.9-1l1.8 3.6 2.7 1c-.2-.7-1.2-2.2-1.6-2.9-.3-.5-.8-.7-1.3-1-.4-.2-1.2-.6-1.6-.7zm46-.5c.6.1 1.1.2 1.7.3 2.4.4 1.8.6 3.3-.3.2-.1 1.1-.7 1.2-.9-.6-.1-1.2-.2-1.8-.2l-1.8-.3c-.4.1-2.1 1-2.6 1.4zm-44.9 3.7c-.2-.7-1.1-2.3-1.4-3-.4-.8-.5-.6-1.2-1-.3-.2-1.1-.7-1.4-.8.3.7 1.1 3.4 1.8 3.7.3.1.5.2.8.4.4.2.9.5 1.4.7zm47.9-5.3c.1-.3.2-.3.5-.5.8-.4 1.4-1.2 2.3-1.1.7.1 2.8.1 3.1.3-.2.2-2.1 1.6-2.4 1.6-.3.1-2.7-.2-3.5-.3zm-62.3-4.1c0-.5-.2-1.4-.2-1.9-.1-.4-.2-1.5-.2-1.8 2.9 2.1 2.1 4.2 2.7 5.8-.2-.1-1-.8-1.2-1-.3-.3-.9-.7-1.1-1.1zm8.1 6.1c-.4-.9-.7-2.2-1.2-3.2-.4-.8-.3-.6-1-1.1-.3-.2-1-.8-1.3-.9l.9 3.4c.3.7.5.6 1.1 1 .5.2 1.2.7 1.5.8zm57-4c.7.1 3.5.4 3.9.2.5-.1 1.9-1.5 2.4-1.9-.9-.1-3-.1-3.8.1-.6.1-2 1.3-2.5 1.6zm-59.9 2.2l-.9-3.5c-.3-.8-1.6-1.8-2.2-2.3l.7 3.7c.1.6 1.8 1.7 2.4 2.1zm62.7-4.2c.5-.4 1.7-1.6 2.3-1.7.6-.1 3.3-.2 3.6-.4-.1.4-1.6 1.6-2 2-1.3.1-2.7.2-3.9.1zm2.5-2.1c.2-.3.7-.8 1-1.1.9-.9 1.3-1 3.1-1.2.5-.1 1.5-.3 1.9-.2-.3.4-1.7 2-2.1 2.1-.2 0-.7.1-.9.2zm-70.7 1.7c-.1-.3-.3-3-.5-3.6-.3-1-1.2-1.6-1.8-2.4 0 .4.1 3.7.2 3.9 0 .4 1.7 2.1 2.1 2.1zm-2.6-2.5c-.2-.2-1.9-1.9-1.9-2.1-.2-.5-.1-3.2-.1-3.9.2.1.2.1.5.5.5.6 1.2 1.2 1.2 1.8zm78-4.2c.3-.4.6-.8 1-1.2.4-.5.5-.8 1.1-1 .5-.2 3.1-.9 3.4-.9-.3.4-.6.8-.9 1.3-.3.5-.5.9-1.1 1.1-.9.2-3.1.5-3.5.7zm-2.2 2.5c.4 0 3.4-.4 3.6-.5.3-.2 1.6-1.9 1.9-2.3-.2 0-3.2.6-3.4.7-.6.2-1.8 1.5-2.1 2.1zm-78.3-1c-.4-.3-1.7-2-1.8-2.4 0-.3.1-3.6.3-3.8.3.4 1.4 1.9 1.5 2.4.1.5.1 3.3 0 3.8zm-2.1-2.9c-.3-.2-.6-.9-.9-1.2-1.3-1.7-.5-1.9-.2-5 .1.1 1.3 1.9 1.4 2.6zm84.7-1.3l3.3-1c.7-.3 1.7-2.4 1.8-2.6-.3 0-2.8.9-3.2 1.1-.6.4-1.8 2.2-1.9 2.5zm-86.7-1.6c.2-.2.6-3.1.6-3.5 0-.8-.1-.8-.4-1.5-.2-.3-.5-1.1-.7-1.3-.1.2-.8 3.1-.8 3.5-.1.7.3 1 .6 1.6 0 .2.5 1 .7 1.2zm88.6-1.3c.1-.4.6-1.1.8-1.5.6-1 1.3-1.3 2.7-1.9.5-.2 1.1-.6 1.6-.6-.4.8-.9 2.4-1.7 2.8-.5.2-3.1 1.2-3.4 1.2zm-90.4-1.8c-.3-.4-.5-.9-.7-1.4-.3-.6-.6-.9-.4-1.6l.9-3.4c.4.6 1.1 2.3 1 3-.1.5-.7 3.2-.8 3.4zm93.5-4.2c.3-.3.6-1.1.7-1.6.3-.8.2-.8 1-1.3.9-.6 1.9-1.2 2.8-1.7-.1.5-.4 1.2-.6 1.7-.5 1.3-.2 1-2.4 2.1-.3.1-.5.3-.8.4-.5.4-.6.5-.7.4zm-1.3 3.1c.9-.5 2-.9 2.9-1.4.9-.4.9-1.5 1.6-2.8-.7.2-2.1 1.1-2.9 1.5-.8.4-.6.5-.9 1.2-.3.4-.7 1-.7 1.5zm-93.7-2c.2-1.1.6-2.2.9-3.3.2-.7.2-1-.1-1.7-.2-.4-.4-1.3-.6-1.6l-1.2 3.2c-.2.7 0 1 .3 1.7.1.6.5 1.5.7 1.7zm-1.4-3.4c-.2-.5-.4-1.2-.6-1.7-.2-.7-.5-.9-.2-1.6l1.4-2.9.1.4c.4 1.6.8 1.7.4 2.9-.2.4-.9 2.6-1.1 2.9zm97.7-.7c.8-.5 2.4-1.7 3.3-2l.7-2.8c-.4.1-2.2 1.5-2.6 1.8-.7.5-.6.5-.9 1.4-.1.4-.3 1-.5 1.6zm-98.9-2.6c.3-.4 1-2.3 1.3-2.8.3-.7.3-1 .1-1.7-.1-.5-.2-1.4-.4-1.7-.5.7-1.1 2-1.5 2.8-.4.8-.2 1 0 1.7.2.5.3 1.1.5 1.7zm100-.6c.1-.6.3-1.2.5-1.8.2-.9.2-.8.9-1.4.4-.4 2-1.7 2.5-2 0 .5-.2 1.5-.4 2-.2.7-.3.9-.9 1.3-.8.6-1.7 1.3-2.6 1.9zM242 358.9c-.2-2.1-.9-2.1-.2-3.5l1.6-2.7c.5 3.5.7 2.1-.7 4.9zm105.2-5.8l-2.9 2.7-.5 2.6c.3-.2.9-.7 1.2-.9.4-.3.8-.7 1.2-1 .7-.7.5-.3.7-1.4.1-.5.1-1.6.3-2zm-105.9 2.3c.3-.2 1.3-2.1 1.6-2.5.4-.6.5-.8.5-1.6l-.1-2c-.2.1 0-.1-.3.2l-.7 1c-1.8 2.7-1.3 1.7-1 4.9zm103.1-.3c0-.4.2-1.4.2-2 .1-.9.1-.9.7-1.5l2.1-2.2c0 .4.1.8 0 1.1-.1 1.2.1 1.8-.9 2.4-.5.6-1.2 1.6-2.1 2.2zm-103.6-5.2c-.1-1 0-1 .5-1.7.3-.4.7-.8 1-1.2.2-.3.8-.9 1-1.1.1.7 0 1.4 0 2 0 .6-.3 1-.6 1.4-.6.8-1.2 1.7-1.7 2.4zm104.1 1.7l2-2.1c.8-.8.5-1.1.6-2.6 0-.4.1-.5.1-1-.4.1-1.9 2.2-2.3 2.7-.3.4-.4 2.6-.4 3zm2.4-9.4c.1.3.2 1.6.2 2 0 .9 0 .9-.6 1.6-.6.8-1.3 1.6-1.9 2.4v-2.7zm-106.6 6.1c.4-.3 1.5-1.8 2-2.3.4-.4.7-.8.7-1.4 0-.7.1-1.3.1-2-.4.4-.6.7-1 1.1-.4.4-.7.7-1 1.1-.5.6-.7.6-.7 1.4-.1.7-.2 1.4-.1 2.1zm51.3-51.7c.4-.1.3-.1.7-.1l3.9.1c.6 0 1 .1 1.5.1 1.3 0 6.7.9 8.2 1.3 1.5.4 6 1.8 7.1 2.3 1.4.6 2.8 1.4 4.3 2 1.2.5 6.8 4.1 7.7 5 .1.1.2.3.4.5l3 2.5c1 .7 2.2 2.3 3.1 3.2 2.7 2.8 3.4 4.2 5.4 7.2.8 1.2 1.5 2.8 2.2 4.1 1.5 3.1 2.5 5.9 3.5 9.2.5 1.6.7 3.6 1.1 5.2.2.9.3 1.9.3 2.7 0 .2.1 1.3.1 1.5l.2 2.2v.8l-.1 3.8c0 .2-.1.3-.1.6 0 .9-.1 2-.2 2.8-.3 2-.4 1.6-.6 2.6-.3 1.7-.6 3.5-1.1 5.2-.2.8-.6 1.5-.9 2.3-.3.8-.5 1.6-.8 2.3-.5 1.5-1.4 2.8-2 4.3-.7 1.8-3.7 6.1-4.9 7.7-.9 1.1-5 5.8-6.1 6.5-1.1.8-2.3 2-3.5 2.9-1.2.9-2.5 1.8-3.8 2.5-1.3.8-2.6 1.9-4.1 2.3l-4.3 2c-1.6.6-3.2.9-4.8 1.5-2.4.8-8.5 1.7-10.9 1.7-2 0-4.1.2-6.1-.1-.4-.1-3.9-.5-4.3-.5-.6.1-5.2-1.2-6.3-1.4-1.4-.3-3.3-1.1-4.6-1.7-.8-.3-1.5-.6-2.3-.9-.9-.4-1.5-.8-2-1.1-1.4-.7-2.8-1.5-4.1-2.3-3-1.8-7.9-6-10.2-8.8l-2.9-3.5c-1-1.2-1.7-2.5-2.5-3.8-.7-1.2-1.7-2.8-2.3-4-1.7-3.4-2.4-5.7-3.4-9.2-.8-2.8-1.2-5.2-1.5-8-.3-2.8-.3-3.3-.3-6.1 0-3.1.1-2.8.4-5.9.5-3.7.7-4.2 1.7-7.8.8-2.9.7-2.3 1.7-4.7.6-1.5 1.2-2.9 2-4.4 1.2-2.3 3.3-5.7 5-7.7 1-1.1 1.8-2.3 2.9-3.4 4.7-4.8 8.5-7.7 14.6-10.7 2.4-1.2 6.7-3 9.2-3.5 1.8-.4 3.4-.8 5.2-1.1 1-.2 2-.1 2.9-.3zm53 48.2c.3-.1 1.6-2.1 1.8-2.4.5-.7.4-.8.3-1.7-.1-.7-.1-1.3-.2-1.9-.5.7-1.1 1.7-1.6 2.5-.4.7-.5.7-.5 1.6 0 .4.1.5.1.9.1.3.1.7.1 1zm-104.1-2.2c.1-1 0-.7.7-1.5l2.2-2c-.1.3-.2 1.5-.3 1.9-.1.7-.2.9-.7 1.4-.4.4-1.8 2.1-2.1 2.1zm103.8-1.1c.2-.1 2.1-3.3 2.1-3.5 0-.8-.4-2-.6-2.8l-1.5 2.7c-.4.7-.4.9-.3 1.7.2.6.2 1.3.3 1.9zm-103.6-.3l2.3-2.1c.5-.5.7-.8.8-1.4.1-.3.3-1.6.3-1.9-.3.3-.9.7-1.2 1-1.2 1.2-1.8 1.1-2 2.5-.1.4-.3 1.4-.2 1.9zm103.2-3.2c.3-.4 1.3-2.3 1.5-2.8.1-.2.3-.5.2-.7l-.7-2.6c-.3.4-1.1 2.3-1.3 2.8-.3.8-.3.8-.1 1.7.1.3.3 1.3.4 1.6zm-102.7-.3c.4-.3.8-.7 1.2-1 2.8-2 1.7-2 2.6-4.2-.8.6-1.8 1.3-2.6 1.9-.5.3-.7.8-.8 1.4-.2.4-.4 1.5-.4 1.9zm101.9-2.9l1.4-3.1c.4-.9.2-.9-.1-1.7-.2-.6-.4-1.1-.6-1.7-.2.4-.3 1-.5 1.5-1.5 3.6-.3 3-.2 5zm-101.2-.7c.2-.1 2.4-1.6 2.7-1.9.6-.4.7-.7.9-1.3.2-.5.5-1.2.6-1.7-.9.6-1.9 1.1-2.8 1.7-.7.4-.7.6-.9 1.3-.2.7-.4 1.3-.5 1.9zm100.4-2.7c.2-.4.4-1 .6-1.5.8-2.2.9-1.9.3-3.2-.2-.4-.5-1.2-.7-1.5-.2.4-.7 2.5-.9 3.2-.2.8-.1.9.1 1.6.1.2.4 1.3.6 1.4zm-99.4-.8c.4-.1 2.2-1.3 2.8-1.7.5-.3.7-.7.9-1.3.2-.5.5-1.1.6-1.6-.9.5-2 1-2.9 1.5-.7.4-.6.4-.9 1.3-.1.7-.3 1.3-.5 1.8zm98.3-2.2c.1-.6.7-2.5.9-3.4.2-.8 0-.8-.3-1.6-.3-.5-.5-1-.8-1.4-.2.4-.7 2.8-.8 3.4-.1.7.2 1 .4 1.6 0 .3.4 1.2.6 1.4zm-97.1-1.1c.9-.5 2.1-1 3-1.6.8-.5.6-.4 1.1-1.3.2-.5.6-1.1.7-1.5-.8.5-2.2.9-3.1 1.4-.8.5-.7.4-1 1.3-.2.5-.7 1.4-.7 1.7zm95.6-2.2c.1-.4.8-3.1.8-3.5 0-.5-1.2-2.4-1.5-2.8-.1.6-.1 1.2-.2 1.7s-.2 1.3-.2 1.7c0 .8 0 .9.4 1.5l.7 1.4zm-92.6-4.2c.8-.3 2.6-.9 3.2-1.2.8-.4.7-.4 1.1-1.1.3-.4.8-1 .9-1.4-.3.1-1.3.4-1.7.5-2 .6-2 .4-2.8 1.7-.1.5-.5 1.1-.7 1.5zm-1.5 3.2c1-.5 2-.9 3-1.4.9-.5 1.5-1.6 2-2.6-.6.1-2.5.9-3.3 1.1-.4.2-.4.1-.6.5-.3.7-1.1 2-1.1 2.4zm92.6-1.8c.1-.6.2-1.3.3-1.9.1-.6.2-1.4.3-2 0-.3-1.4-2.4-1.7-2.6v1c0 .4-.1.5-.1.9l-.1 1.9c0 .7.9 2.1 1.3 2.7zm-89.2-4.4c.8-.3 2.7-.7 3.4-1 .6-.3.7-.5 1.1-1 .3-.3.9-.9.9-1.3-.5.1-3.2.6-3.5.8-.5.3-1.6 2-1.9 2.5zm87.4 1.3c0-.3.1-.6.1-.9l.1-2c0-.5 0-.6.1-1-.3-.5-1.5-2-1.9-2.3-.1 1.1-.1 2.7.1 3.7.1.5 1.2 2.3 1.5 2.5zm-83-7l3.6-.6c.4-.1 2.2-1.8 2.3-1.9l-3.8.4c-.6.1-1.8 1.5-2.1 2.1zm-2.3 2.7l3.6-.8c.6-.2 1.8-1.6 2.2-2.1-.4 0-3.2.5-3.7.6-.7.2-1.8 1.8-2.1 2.3zm81.5-3.7c.1.3 0 .7 0 1.1l.2 1.9c.2.7 1.2 1.8 1.7 2.4.1-.7.1-3.4-.1-4-.2-.5-1.6-2.1-1.8-2.2-.1.4-.1.4 0 .8zm-2.5-3.2c0 .4.3 3.3.5 3.6.3.7 1.3 1.6 1.8 2.3.1-.5-.1-3.4-.2-3.8-.2-.3-1.9-1.9-2.1-2.1zm-74.4 1.6l3.8-.4c.5-.1.9-.4 1.2-.8.3-.3.9-.7 1.1-1l-2 .1c-.6 0-1.5-.1-2 .1-.3.1-1.9 1.7-2.1 2zm69.3-2.7c-.2-.5-.4-1.3-.5-1.8-.2-.6-.3-1.3-.5-1.8-.2-.7-1.9-1.5-2.6-2 .3 1.1.8 2.3 1.2 3.4.3.8.5.8 1.1 1.2.4.4.9.8 1.3 1zm3.5-.4c-.4-.3-.7-.7-1.2-1 .3.8.4 2.8.7 3.5.3.7 1.4 1.9 2 2.3.1-.6-.3-3.2-.5-3.7-.2-.4-.3-.6-1-1.1zm-70.1.6c.9.1 2.9.1 3.8-.1.4-.1 2.2-1.4 2.3-1.6l-1.9-.1c-.7 0-1.2-.2-1.9 0-.3 0-2.1 1.6-2.3 1.8zm63.9-2.2c-.5-1-.7-2.2-1.2-3.3-.3-.7-.5-.7-1.2-1-.4-.2-1.1-.7-1.4-.8.1.5 1 2.7 1.3 3.2.3.6 1.8 1.6 2.5 1.9zm4.5.5c-.3-.7-1.7-1.5-2.3-1.9 0 .5.7 2.8.9 3.4.2.7 1.5 1.6 2.1 2.1.1-.5-.5-3.1-.7-3.6zm-65.7-.6c.4 0 3.3.3 3.7.2.6-.1 2-1 2.5-1.4-1.3-.2-2.6-.5-3.9-.5-.2.1-2.1 1.4-2.3 1.7zm58.2-1.7c-.5-1-.8-2.2-1.3-3.2-.3-.7-.6-.7-1.3-1-.4-.2-1.3-.6-1.6-.7 0 .3 1.3 2.7 1.5 3.1.5.8 1.5 1.1 2.7 1.8zm-52.8-2l-2.4 1.5c.4.2 1.2.2 1.7.3.2 0 .6.1.8.1 1.4.2 1.2.1 2.4-.5.3-.1 1.1-.6 1.3-.7-.5-.2-1.3-.3-1.9-.4-.3 0-1.7-.2-1.9-.3zm.4-.2c1.1.2 2.3.4 3.5.6.9.1 2.2-.7 3.1-1.1l-3.6-.9c-.6-.1-.8 0-1.6.5-.3.2-1.1.6-1.4.9zm3.3-1.7c.2.1 2.8.8 3.2.8.9.1.8.1 1.6-.2l1.5-.6c-.4-.2-2.7-1-3.2-1.1-.8-.2-.9 0-1.6.4-.5.2-1.1.4-1.5.7zm3.6-1.7l-.4.2c.3.2 2.6.9 3.1 1 .9.2 1 .1 1.7-.1.3-.1 1.4-.3 1.6-.6-.6 0-2.5-1-3.2-1.2-.9-.3-1.6.2-2.8.7zm42.5 3.9c-.5-1-.9-2.1-1.5-3-.7-1.1-1.3-.7-2.9-1.6.1.4 1.3 2.3 1.6 2.9.5.8 2.5 1.7 2.8 1.7zm-39.5-4.9c1 .4 1.9.8 2.9 1.2 1.3.5 2.2-.2 3.4-.4-.1-.1.1 0-.1-.1l-2.9-1.3c-1-.4-1.2 0-2.5.3l-.6.2c-.2.1-.1.1-.2.1zm36.4 3.6c-.1-.4-1.3-2.6-1.6-2.9-.5-.7-.6-.7-1.3-.9-.4-.1-1.5-.5-1.8-.5.4.8 1.3 1.9 1.8 2.7.6.9 1.9 1.1 2.9 1.6zm-31.3-5.2l-1.8.5c.6.5 2.7 1.3 3.6 1.6.5.1.4.1.9 0 .6-.1 1.2-.2 1.9-.3-.2-.3-2.3-1.5-2.8-1.7-.9-.4-.9-.3-1.8-.1zm28.2 3.9l-1.8-2.7c-.6-.9-1.8-.9-3.2-1.2l1.9 2.6c.5.6.7.7 1.4.8.5.2 1.1.4 1.7.5zm-26.3-4.1l3.2 1.9c.4.2 2.4-.2 2.8-.2-.2-.2-2.1-1.5-2.5-1.7-.7-.5-.9-.4-1.7-.3-.3-.1-1.6.1-1.8.3zm23 3.1c-.6-.8-1.3-1.7-1.9-2.5-.6-.8-.5-.6-1.4-.8-.5-.1-1.5-.3-2-.3.3.4 1.6 1.9 2.1 2.3.6.6.5.7 1.3.9.4.1 1.4.5 1.9.4zm-19.6-3.8c.7-.1 1.3-.2 2-.2.5 0 .5-.2.9.1.3.1.4.2.7.4.4.3 2.3 1.7 2.5 1.9-.7.1-1.5-.1-2.1 0-.7.1-.9-.1-1.5-.5-.8-.5-1.8-1.1-2.5-1.7zm16.3 3.1c0-.2-1.9-2.3-2.6-2.9-.2-.2-.6-.2-.9-.2l-2-.2c.1.2 1.9 1.9 2.2 2.2.7.9 1.7.9 3.3 1.1zm-12.8-3.3c.3.3 3 2.3 3.4 2.4l2.5.1c-.1-.2-.9-.8-1.1-1-1-.8-1.5-1.8-2.7-1.6-.7.1-1.4 0-2.1.1zm9.4 2.8c-.6-.8-1.5-1.4-2.2-2.1-.6-.6-.5-.6-1.4-.8-.4-.1-1.7 0-2.2 0l.3.2c.8.7 2.5 2.5 3.5 2.5.4 0 .6 0 1 .1.2 0 .8.1 1 .1zM242 333.3c-.1 1-1.1 4.9-1.1 5.4.1.7-.6 4-.6 5.7 0 1.3-.1 5.3.1 6.1l.5 4.3c-.1.9 1.1 5.6 1.4 6.6 1.5 5.1 2.4 7 4.6 11.5l3.8 5.9c.3.4.5.5.7.9l2.1 2.7c.5.5 1.2 1.2 1.6 1.7.6.9 5.6 5.2 6.9 6 .6.4 1.2.9 1.9 1.4 1.3.9 2.7 1.7 4 2.4 5.3 3.2 13.2 5.8 19.4 6.4l5.9.4c1.1 0 5.3-.1 6-.2.5-.1 1.1-.1 1.5-.2.4-.1 1-.2 1.4-.2 2.8-.4 5.1-1 7.9-1.8.4-.1.9-.3 1.3-.4.5-.2.8-.1 1.3-.3 2.6-1.1 4.2-1.7 6.7-3 4.3-2.2 11.6-7.5 14.6-11.3.2-.3.5-.5.8-.9.1-.2.6-.7.7-.9 1.6-1.7 3.2-4.4 4.1-5.5 1-1.2 3.8-6.8 4.4-8.5 1.3-3.4 2.3-6.3 3-9.9.5-2.5.5-3.4.9-5.6l.1-1.5v-.8c0-.3.1-.4.1-.7.1-3.3-.2-6-.5-9.3-.2-1.8-1.1-6.1-1.7-8-.1-.3-.2-1-.3-1.3-.2-.4-.3-.7-.5-1.1-1.3-3.8-3.1-7.5-5.2-10.9-.7-1.1-.5-.7-1.3-1.9-1.7-2.5-3.7-5-5.8-7.1-6-6-11.7-9.7-19.6-12.8-1.6-.6-3.3-1-4.8-1.6-2.1-.8-8.9-1.8-11.1-1.8-1.1 0-2.1-.1-3.2-.1-1.2 0-4.8.2-6 .4-.5.1-.9 0-1.3.1-4.2.7-7.4 1.4-11.5 3-4.3 1.7-9 4.1-12.6 6.9l-1.9 1.3c-.5.4-1.2 1.1-1.7 1.5-1.3 1-2.2 2.2-3.3 3.2-.3.3-.5.4-.8.8l-3.7 4.5c-.4.6-.9 1.3-1.3 1.9-.6.7-2.1 3.3-2.4 4l-.2-.1c-1.4 3-2.9 6-3.9 9.2-.4 1.1-.7 2.2-1 3.4z" class="st2"/>
    <path id="path843" d="M277.5 331.5h34.1c-.1-.9-2-3.6-2.6-4.4-1-1.3-2.4-2.5-3.7-3.4-2.9-2.2-7-3.5-10.7-3.5-4.7 0-9.4 1.8-12.7 5.1-.6.6-1.1 1.2-1.7 1.8-.7.7-2.5 3.5-2.7 4.4z" class="st3"/>
    <path id="path845" d="M310.3 326.2c.2-.3 1.1-.8 1.5-1.1.3-.3 1.2-.9 1.5-1 .3.3.2.3.1.7l-.6 2.1 1.6-1.1.3.5-2.9 2-.2-.2c.1-.7.8-2 .8-2.6l-1.7 1.2zm-31.1-.5c-.2.5-.4 1.1-1.1 1.2-1.2.3-2.6-.9-2.5-1.9 0-.4.6-2 1.3-1-.3.3-.5.3-.6.7 0 .6.5 1.2 1.1 1.4 1 .4 1.1-.2 1.4-.8zm30.6-4.4c-.2 0-.6 0-1.1.6-.2.2-.6.8-.7 1-.2.8.2 1.9 1.6 1.7 1.3-.2 2.7-2.5 1-3.3-.7-.3-.8 0-.8 0zm-30.6-.4c-.4.2-.7.3-.9.8-.4 1.2 1.2 3 2.4 2.5.9-.4 1.2-1.3.7-2.1-.5-.6-1.4-1.5-2.2-1.2zm28.4-1.9l.6.4c-.1.4-1.6 2.6-1.9 3l-.6-.5zm-24.5 3.2l-1.8-3 .3-.2c.3.1 2.1.9 2.4.8l-1-1.6.5-.3c.3.3 1.7 2.8 1.8 3.1-.5.2-.3.1-.7-.1l-2-.8c0 .4.8 1.5 1 1.9zm.9-2.4zm21.7-1.4l.3-.5-2-1-.3.4.6.4-1.3 2.7.7.4 1.4-2.7zm-18.1.4c-.5-.6-1.8 0-2-1.2-.2-.9 1-1.4 1.8-1.3l.2.5c-.5.1-.9 0-1.3.5l.2.4c.5.1 1 0 1.4.3.3.2.5.8.5 1.1-.1.8-1.4 1.2-2 1.2l-.2-.6c.5 0 1 0 1.4-.4zm14.6-2.5c-.1.6-.4 1.6-.6 2.2-.3.9-.6 1.2-1.6.9-.9-.3-1-.8-.8-1.7.2-.5.4-1.7.6-2.1l.7.2-.6 2.2c-.2.5-.1.2 0 .7.4.1.3.2.8.2.4-.4.7-2.1.9-2.8zm-8.2-1.2l.1 3.5-.7.1c-.2-1.5 0-2-.1-2.7 0-.4-.1-.3-.1-.8zm-4.9.7c.3-.2 1.9-.5 2.2-.4v.5l-.6.2c0 .7.6 2.5.5 3l-.7.1-.6-2.9c-.5 0-.3.2-.8 0zm7.3 1.4c0-.3.1-1.2.1-1.5-.4 0-.3 0-.7-.1v-.5c.7.1 1.5.1 2.2.2v.5h-.7c-.1.4-.1.4-.1.8l-.2 2.2c-.3 0-.4-.1-.8-.1 0-.3.1-1.2.2-1.5zm-25.9 14.3h6.4c.3-.4 1.1-2.7 2.8-4.6 1.2-1.3 2.3-2.6 3.8-3.6 3.6-2.4 6.7-3.6 11.1-3.6 6.8 0 12.8 3.6 16.3 9.3.3.4 1.2 2.3 1.3 2.4h6.4c-.1-1.5-2.5-5.7-3.4-7.1-2.7-4-7.3-7.5-11.8-9.3-7.9-3.1-17.8-1.7-24.5 3.8-1.8 1.5-3.8 3.4-5.1 5.4-.8 1.6-3.2 5.9-3.3 7.3z" class="st3"/>
    <path id="path847" d="M295.5 348.2h-.7v-2.7h-.6v-.4h1.9v.4h-.6zm2.4-.3c-.4 0-.3.1-.6 0-.1-.2-.4-2.8-.4-3 .2-.1.4-.1.7 0zm-5.2-.8c-.5-.7-1.4-.7-1.2-1.7.2-.9 1.3-.7 2-.4l-.1.5c-.5-.2-.9-.4-1.2.2.4.7 1.5.6 1.2 1.7-.3.8-1.6.8-2.1.3v-.5c.6.1.4.3 1.3.2zm8.4 0l-.1-.5c-.7.5-1.2.5-1.5-.4-.3-1-.2-1.5.9-1.6l-.1-.4c-3-.2-1.5 4.7.8 2.9zm-10-2.4c-.7 1.5-.3 3.2-1.9 2.7-.9-.2-.9-.7-.7-1.5.2-.6.3-1.3.6-1.9l.6.2c0 .3-.5 1.9-.6 2.4l.3.3h.5c.3-.3.6-1.9.9-2.5zm-3.3-1.3l-1.2 2.3c-.5 0-.3 0-.6-.3l-.3.4c1.4 1.8 2.2-1.2 2.7-2.1zm13 .6c.4-.3 1.3-.8 1.7-.8l.2.4-1 .6.4.7.8-.4.2.5-.8.4.4.7c.4-.1.8-.4 1.1-.4l.1.4-1.7.8zm-20.2-2.6c-.7-.1-1.2-.8-2.1-.5 0 .1-.4.3.1 1.1.3.6 2 1.9 2.5 2.3 1.2 1 2.5 1.7 3.9 2.4 2.6 1.3 8.3 2.7 11.1 2.2.4-.1 1 0 2.2-.2.9-.2 1.7-.4 2.6-.6 2.8-.9 5.8-2.7 8.1-4.6.8-.7 2-1.5 2.2-2.7 0-.5-.2-.9-.6-1-1 0-1.2 1.1-1.7 1.2l-.3-4.2c-.2 0-1.1 1.1-1.2 1.3-.9 1.1-3.1 2.9-4.4 3.5-1.3.7-2.3 1.2-3.7 1.6-.7.2-1.3.3-2.1.5-.3.1-.9.1-1.2.2-.5 0-.8 0-1.3.1-.3 0-.7-.1-1.1-.1-.5 0-.8-.1-1.2-.1-1.8-.2-4.3-1.1-5.9-2-2.4-1.4-3.9-3.1-5.5-5.1-.3.5 0 1.7-.1 2.3-.3 1.2-.2 1.5-.3 2.4z" class="st3"/>
    <path id="path849" d="M294.6 337.4c.1.5.1 1.7-.6 1.8 0-.7.6-1.2-.1-2h-.5c0-1.1 1.1-.6 1.2.2zm1.1 1.8c0-.5-.4-.7-.3-1.2 0-.8.4-.7.8-.9 0-.4-.1-.4-.5-.4-1.1.2-.9 2.3 0 2.5zm.3.3c-.4-4.8 4.3-2.6 1.9-1.4-1.3.6-1.1.4-1.1 1.5h-.3c-.2-1.9 1.5-1.6 1.4-2.2-.3-.5-1.1-.1-1.3.4-.3.6-.2 1.5-.4 1.9zm-5.1-2.2c.4.6.6.6 1.2.9.9.4.4.9.7 1.3h.3c.1-1.8-1.3-1.5-1.5-2.3.5-.4 1-.1 1.3.4.5.8.1 1.2.3 1.8h.3c.2-.7-.1-2.1-.6-2.6-.7-.5-1.7-.5-2 .5zm1.7 6.2c.1-.9.1-1.6.1-2.5-.1-.3-.1 0-.5-.6.2-.8.8-.6 1.5-.6.3-.1.3-.6 1-.6.2 0 .4.1.6.2.3.2.1.3.4.4h1.1c.8.2.7.7.1 1.2v1.2c.1.4 0 .9.1 1.3 1.5.1 5.1-1.6 6.6-2.6 1.3-.9 4-3.2 4.7-4.5H281c.2.6 1.6 2.1 2.1 2.6 1.5 1.5 3.7 3 5.7 3.8.9.1 2.9.7 3.8.7z" class="st3"/>
    <path id="path851" d="M270.3 335.1h49.2l1.2-2h-51.8c.2.4.8.9 1 1.5.1.3.1.4.4.5z" class="st3"/>
    <path id="rect853" class="st3" d="M262.5 377.4h64.6v1.5h-64.6z"/>
    <path id="path855" d="M323.4 361.8c-.2-.2-.4-2.1-.4-2.5l-1 1.6-.4-.2 1.6-2.8c.5.3.5 1.4.6 2.4.3-.2.7-1.1 1-1.5l.4.2-1.4 2.5c-.3.4 0 .3-.4.3zm-3-4.7c-.7.3-1.1 1.1-1.1 1.8-.2 1.6 2.5 1.9 2.7-.6.1-.9-.8-1.5-1.6-1.2zm-3 1.9c0-.3 1.1-2.7 1.3-2.9l.6.3-1.3 2.9zm-.2-3l.6.3.2-.4c-.3-.2-1.6-.8-1.9-.8l-.1.3.6.3-1.2 2.3.6.3zm-2.4-2l.5.4c-.3.7-.7 2.7-1.1 3.2l-.5-.4c0-.4.2-.4.1-.9l-.7-.5-.7.5-.4-.4zm14 13.7c-.4-.5-1.5-1.5-1.7-2.7-.1-.8-.2-1.1-.4-1.8-.2-.5-.7-1.3-.8-1.4 1.1-.1 1.2-.1 2.2-.6 2-1 2.7-2.5 4.1-3.5l.2-.2c.1-.1.1 0 .1-.2-2.9-.2-3.6 1.6-6 1-2.8-.6-3.8-2.7-7.2-3.9-2-.7-3.6-.9-5.3-2-1-.6-1.2-1.1-1.8-1.9-.6.7-1.6 3.6-1.1 5.2 1.3 3.9 7.3 4.3 10 5.9.9.5 1.9 1.3 2.6 1.9.4.4.8.7 1.1 1.1.4.4.6.8 1.1 1.3.6.7 2.2 1.7 2.9 1.8z" class="st3"/>
    <path id="path857" d="M266 358.1c.9-.7 2.1-.9 2.7.5.7 1.7-.2 1.8-1.4 2.3-.5-.5-.9-2.1-1.3-2.8zm3.8-1.7c-.4.2-.6.2-.7.7-.3.8.5 2.8 1.9 2.3 1.6-.5.4-3.7-1.2-3zm4.2.8c0-.4.1-1.1.1-1.5.1-.6-.1-1 .5-1.1l1.1 2.9-.6.2-.5-1.5c-.4.7 0 1.6-.5 2-.5-.1-1-.9-1.4-1.2 0 .6.4 1 .4 1.6l-.3.1c-.2-.2-1-2.6-1.1-3l.5-.2c.4.4 1.3 1.6 1.8 1.7zm-1.4-.3s-.1.1 0 0c0-.1 0 0 0 0zm-16 1.3c.8.1 1.2.1 2 .5 1.2.6 3.3 3.4 4.7 2.4l.2.2c-.1.4-.2.1-.6 1.8-.2 1 .2.7-.3 2.2-.5 1.4-1.1 2-1.9 3.1 2.9-1.1 3.9-5.1 8.5-7.4 1.8-.9 4-1.4 5.9-2.1 1.9-.6 3.9-1.5 4.4-3.6-.7-1.2-1.6-3.9-2.4-4.9-.4.9-.2 1.6-1.2 2.6-.6.6-2.1.9-2.8 1.1-2 .6-4.2.5-6.1 1.8-1.4.9-3.2 2.5-4.7 3-2.3.7-2.8-1.2-4.4-1.2-.6 0-.6 0-1.2.3-.3.1-.1 0-.1.2z" class="st3"/>
    <path id="rect859" class="st3" d="M265.1 375.6h59.5v1.4h-59.5z"/>
    <path id="path861" d="M324.5 349.4c.4.5.9 1.1.8 1.8-1 .8-.4.4-1.3.3-.1.8-.4.9-1 1.4l-.3-.6.9-.9-.1-.4c-.3 0-.9.5-1.3.6l-.4-.6zm-2.2-2.2l-2.1 2.3 1.4 1.4.3-.4-.9-.8.5-.6c.3.1.4.3.7.6l.3-.4-.6-.6.5-.6.8.8.4-.3zm-3-1.7c.5.1 1.1.4 1.4.8.4.5.1 1.2-.1 1.6-.8 1.7-1.5.8-2.7.4zm-3-.7c-.4.2-.6.2-.7.7-1 2.3 1.3 3.4 2.1 1.7.1-.3.3-.9.3-1.2-.1-.9-.8-1.5-1.7-1.2zm-3 2.2c.3-.6.4-1.9.8-2.5l.4.1.6 3-.6.1-.4-1.6-.5 1.8h-.4l-1.1-1.4c0 .5.3 1.1.2 1.7h-.3c-.2-.3-.6-2.7-.6-3.1l.4-.1zm-1 2.6c.7-.5 1.3-1.1 2.8-.9 1.2.2 1.7.3 2.8.9.8.4 1.5 1 2.1 1.6.8 1 1.1 1.3.9 2.7.6 0 4.5-.1 5.2-.3 2.3-.4 1-2 .2-3.2-3-4.9-8.8-8.4-14.5-6.9-.5.1-1.4.5-1.8.9-1.3 1.4 1 1.9 2.3 5.2z" class="st3"/>
    <path id="path863" d="M269.9 345.9l.3-.2c.2.2 1 2.8 1 3.1l-.4.3-1.5-1.3.4 2-.4.3-2.4-2.3.6-.4c.4.4.9 1 1.4 1.2.1-.6-.4-1.2-.3-1.8l.3-.2 1.5 1.3c0-.6-.5-1.5-.5-2zm-1 2.8s.1-.1 0 0c.1-.1.1-.1 0 0 .1-.1-.1-.2 0 0zm3.2-3.5l.9 3-.7.2-.9-3zm2.7 1.7c-.5-.4-1.5-.3-1.5-1.3 0-.9 1.1-.9 1.8-.9v.5c-.4 0-.7-.1-1.1.2v.4c.6.4 1.7.1 1.5 1.4-.1.8-1.4.9-2 .7v-.5c.4 0 .9.1 1.3-.2zm-11.1 3.5c.7.9 3.9 2.2 5 2.4 0-1-.2-1.3 1.1-2 .8-.4 1.5-.8 2.3-1.1.9-.3 1.6-.6 2.5-.8 1.2-.3 1.7 0 2.6.6.5-.6 1.1-1.6 1.5-2.3.4-.6 1.5-1.9.7-2.6-2.3-2-8.9-.2-11.9 1.8-1.1.6-3.8 2.8-3.8 4z" class="st3"/>
    <path id="path865" d="M292.5 363.1h5v-.9c-.1-1-.2-4.2-.2-4.3-.1-.6-.1-1.1-.1-1.7 0-.4-.1-.7-.1-1.7 0-.6-.1-1.1-.1-1.7v-.9c0-.4-.1-.4-.1-.8 0-.5.1-1.2-.1-1.7-.3-.1-1.5 0-2 0-.3 0-1.7-.1-1.9-.2l-.2 5.2c0 1-.1 1.2-.1 1.7 0 2.3-.1 4.7-.1 7z" class="st3"/>
    <path id="rect867" class="st3" d="M266.9 332h55.4v.7h-55.4z"/>
    <path id="path869" d="M263.4 403.4c.2.4 2.6 1.8 3.1 2.4l-1.2 3.7c.6-.1 2.5-2 3.3-2.2l3.1 2.2-1.2-3.7 3.1-2.3h-3.8c-.2-.3-.6-1.5-.7-1.9-.2-.5-.4-1.5-.7-1.9l-1.3 3.8z" class="st2"/>
    <path id="path871" d="M302.3 407.9c.2.3 2.5 1.9 3 2.3 0 .5-1 3.1-1.1 3.8.9-.4 2.6-2 3.3-2.2l3.1 2.2-1.2-3.7 3.1-2.3h-3.9l-1.2-3.6c-.1-.1-.1-.1-.1-.2l-.6 1.9c-.1.3-.5 1.7-.6 1.9z" class="st2"/>
    <path id="path873" d="M315.4 403.4c.2.3 2.5 1.9 3 2.3.1.7-.9 3-1.1 3.8.7-.2 2.5-2 3.3-2.2l3.1 2.2-1.2-3.7 3.1-2.3h-3.9l-1.2-3.6-.1-.1c-.3.4-1 3.3-1.3 3.7z" class="st2"/>
    <path id="path875" d="M289.1 409.4c.2.3 2.5 1.9 3 2.3 0 .5-1 3.1-1.1 3.8.9-.5 2.6-2 3.3-2.2l3.1 2.2-1.2-3.8 3.1-2.3h-3.9l-1.2-3.7c-.3.4-1.1 3.3-1.3 3.7z" class="st2"/>
    <path id="path877" d="M279.1 410.2l-1.2 3.8 3.1-2.3c.7.2 2.8 2.1 3.3 2.2l-1.2-3.7 3.1-2.3h-3.8c-.2-.2-1.2-3.4-1.3-3.8l-1.2 3.8H276z" class="st2"/>
    <path id="path879" d="M314.5 367.3h3.5v5.4h-3.5zm-1.1 6.7h5.5v-8.3h-5.1l-.4.1v.4z" class="st3"/>
    <path id="path881" d="M293.1 367.3h3.6v5.4h-3.6zm-1 6.7h5.5v-7.8l-.1-.4H292v8.2z" class="st3"/>
    <path id="path883" d="M271.8 367.3h3.6v5.4h-3.6zm-1 6.7h5.5v-7.8l-.1-.4h-5.5v8.2z" class="st3"/>
    <path id="path885" d="M321.4 309.6c-.9.3-1.2.4-1.9 1.1-1 1.1-1.6 2.8-.5 4.1.5.6 1.4.9 2.2.7 1.3-.3 2.6-1.7 2.9-3 .2-.8.1-1.6-.5-2.2-.3-.3-.4-.4-.8-.6-.2-.1-.4-.1-.6-.1h-.4c-.4-.1-.3 0-.4 0z" class="st3"/>
    <path id="path887" d="M275.9 303.6c-.6.2-1.2.4-1.6 1.3-.8 2 1.1 5.4 3.4 4.8 3-.8 1.7-5.1-.5-6l-1-.1h-.3z" class="st3"/>
    <path id="path889" d="M269.6 335.8h44c.9 0 5.8.2 6.2-.1-.2-.4-.7-.2-1.2-.2h-47.8c-.5 0-1.2-.2-1.2.3z" class="st3"/>
    <path id="path891" d="M271.5 350.3c0 .6.1 1.3-.1 1.9-.1.6-.1 1.3 0 1.9.4-.2 4-.8 4.2-1.4l-.2-3.6c-1.3-.1-2.6.7-3.9 1.2z" class="st3"/>
    <path id="path893" d="M271.3 360.5c-.3.8-.1 1.8-.1 2.6h5l-.2-4.1z" class="st3"/>
    <path id="path895" d="M329.1 320.1c.5-.4 1.8-1.4 2.3-1.5 1 .8 1.2 1.6.1 2.4-1.5 1.1-2.4-.7-2.4-.9zm1.5-2.5c-.3.6-3.9 3-4.6 3.4-.3-.2-.7-.5-1-.5 0 .3 1.7 2.5 1.8 2.6.2-.3.1-.1 0-.5-.1-.2-.1-.3-.1-.6.4-.5 1.4-1.2 2-1.6.5.7.3 1.2-.2 2.3-.2.5-.5 1.2-.7 1.7.2.3.5.6.6.8.2.3.3.7.7.7.1-.8-.7-.3.1-2.1.2-.5.6-1.7.8-2 2.4 1.2 3.1-.5 2.8-1.7-.1-.5-2.2-3.3-2.4-3.4-.1.2.1.4.2.9z" class="st2"/>
    <path id="path897" d="M314.2 349.9c0 .4-.2 1.9-.1 2.2.6.6 3.5 1.6 4.3 1.6 0-.4-.1-.4-.1-.8v-.9l-.1-1.8c-.6-.6-2.6-1.2-3.5-1.2h-.5z" class="st3"/>
    <path id="path899" d="M321.4 309.6c.1 0 0-.1.4-.1h.4c.2 0 .4.1.6.1.4.1.5.3.8.6.6.6.7 1.4.5 2.2-.3 1.3-1.6 2.7-2.9 3-.8.2-1.7-.1-2.2-.7-1.1-1.2-.5-3 .5-4.1.8-.6 1-.7 1.9-1zm-.5-.6c-.2.1-.7 0-1.4.4-3.8 2.4-.9 7.2 2.2 6.7 3.2-.5 4.2-4.5 1.8-6.3-.6-.5-1.4-.9-2.2-.9-.3 0-.3.1-.4.1z" class="st2"/>
    <path id="path901" d="M275.9 303.6c.1 0 0-.1.4-.1l1 .1c2.2.9 3.5 5.2.5 6-2.3.6-4.1-2.8-3.4-4.8.3-.8.9-1 1.5-1.2zm.2-.4c-.5.2-.7.1-1.3.5-2.2 1.3-2.1 4.4-.2 5.9 1.7 1.3 4.2.5 5.1-.8 1.8-2.5-.1-5.7-2.6-5.7-.8 0-.4-.1-1 .1z" class="st2"/>
    <path id="path903" d="M313.8 362.1v1h5l-.1-1.9-3.6-1.3c-.4-.1-.9-.4-1.2-.5v2.1c-.1.3-.1.3-.1.6z" class="st3"/>
    <path id="path905" d="M333.5 335c.6-.2 1.2-.7 1.9-.7.5.3.5.8.9.7l-1.1-3c-.1-.3-.1-.3-.3-.3-.2.4.3 1.1.1 1.5-.2.2-1.5.8-1.8.7-1-.3-2.2-3.2.8-4.7s5.5 1.3 4.1 3.4c-.3.4-.6.3-.6.7.3 0 1.3-.6 1.6-.8-.4-1.4-.4-2.6-1.5-3.7-1.5-1.6-4.2-1.1-5.3.5-1.3 1.8-.1 4.7 1.2 5.7z" class="st2"/>
    <path id="path907" d="M302.8 306.9c.1-.3.1-1.2.2-1.7.2-1 .7-.3 1.2-.7-.1-.4-.4-.2-.8-.2l-2.7-.4v.3c.4.2 1.1.2 1.4.6.1.3-.1 1.7-.4 1.9-.6.3-1.6.1-2.1-.1s-1-.8-1.2-1.3c-.3-.8-.3-1.3-.2-2.1.3-2.3 2.6-3.4 4.3-2.2.7.5.5 1.4 1 1.6v-1.8c-.8-.1-3.7-1.7-5.7.6-1.2 1.4-1.2 3.9.8 5.2.5.3 1.3.5 1.9.6.5 0 1.9-.2 2.3-.3z" class="st2"/>
    <path id="path909" d="M314.9 372.3c.4.1 2.3.1 2.6 0 .1-.4.1-4.2 0-4.6-.5-.2-1.3-.1-1.8-.1-1.1 0-.9-.1-.9 1 0 .7-.1 3.2.1 3.7z" class="st3"/>
    <path id="polygon911" class="st3" d="M296.3 368.1v-.4l-.5-.1h-2.3v4.8h2.3l.4-.1.1-.4z"/>
    <path id="path913" d="M260 314.6l.8-.5c.5.3 3.6 3.6 3.9 4.1l-.5 1c.4 0 .8-.5 1.1-.8l2.9-2.7c-.5-1-.4-1.5-.9-1.6 0 .6.3 1.1-.3 2-.2.4-1 1-1.3 1.3-.4.1-1.9-1.7-2.1-2 1.5-1.9 1.8-.5 2.4-.7.1-.3-.3-.5-.8-1-.7-.7-.6-.9-1-.9-.2.6 1.1.7-.9 2.3-.4-.3-1.6-1.5-1.7-2 .3-.5.8-.9 1.2-1.2 1-.7 1.4.2 1.8-.2l-1.3-.9c-.4.3-2.1 2.1-2.8 2.7-.7.8-.8.8-.5 1.1z" class="st2"/>
    <path id="path915" d="M306.6 355.8l-.7-.6c0 .3.1.9.2 1.2 0 .4-.1 1 .1 1.4.2.4 1.1 1.4 1.4 1.6.1-.6-.2-1.7 0-2.1.4.7.1 4.5.1 4.9.3-.4.3-.8.8-1 .3.5.1 1.1.2 1.7.4-.7.4-3.5.4-4.5 0-.5-.1-.7-.1-1.2 0-1-.5-1.6-1.5-2.2-.3.3-.4.7-.9.8z" class="st3"/>
    <path id="path917" d="M311.2 303.5c0 .6-.8 2-1 2.6-.2.5-.9 2.1-1.2 2.4-.3.1-.7-.2-1.1 0 .1.3.6.3 1.1.6 1 .4 2.8 1.2 3.6 1.7l1-1c.2-.2.2-.2.2-.4-.4 0-1.1.7-1.9.5-.5-.1-1.5-.5-1.8-.9 0-.4.9-2.2 1.1-2.5.2.1 1 .4 1.3.5.7.4.2.8.2 1.3l.2.1c.2-.4.3-.8.5-1.2.3-.7.6-.8.4-1.1-.3.1-.5.6-.8.7-.4 0-1.3-.4-1.6-.6 0-.3.3-.9.5-1.2.2-.4.3-.8.7-1.1.4 0 1.3.4 1.6.7.9.7.4 1.1.7 1.6.3-.1.1.2.3-.7.1-.3.2-.5.1-.8l-4.6-2c-.1.5.3.2.5.8z" class="st2"/>
    <path id="rect919" class="st3" d="M272.2 367.6h2.7v4.7h-2.7z"/>
    <path id="path921" d="M337.4 353.1c0-.4.1-1.1.2-1.6.4 0 1.9.9 2.2 1.1-.3.2-2 .5-2.4.5zm-2.8-2.1c.8 0 0-1.3 1.7-.3.3.2.7.3 1 .5 0 .4-.1 1.6-.3 2-.5.2-1.6.3-2.1.3-.5-.6.2-.9-.5-.9 0 .5 0 1.1-.1 1.6-.1.4-.3 1.1-.2 1.4 1-.7-.8-.8 3.2-1.6.6-.1 3.6-.7 4-.9-.5-.6-5.1-2.9-5.8-3.6-.5-.5-.1-.6-.4-1-.2.1-.1 0-.2.2s-.1.7-.1 1c0 .5-.2 1-.2 1.3z" class="st2"/>
    <path id="path923" d="M282.3 301.4c1.3 0 1 0 1.5 2.3.2.8.6 2.5.5 3.3-.4.4-.6.3-.9.6.3.2.8-.1 1.5-.2.4-.1 1.4-.1 1.6-.4-.7-.4-1.1.3-1.3-.9-.1-.4-.3-1.6-.4-1.9.3-.3 1.2-.3 1.7-.3.2.2.2.2.3.4.2.4 0 .4.3.5.2-.3-.1-.9-.2-1.3 0-.2-.1-.5-.1-.7 0-.3 0-.4-.2-.5-.3.4.2 1-.5 1.2-.2.1-1.2.3-1.3.2-.1-.5-.4-2-.4-2.5.3-.2 1.5-.5 1.8-.5.9.1 1 .9 1.4.9 0-.3-.4-1-.5-1.4l-4.4.8c-.4.1-.4.1-.4.4z" class="st2"/>
    <path id="path925" d="M250.8 331.6h2.4c0 .3-.4 1.4-.5 1.6-.2-.1-1.1-.9-1.5-1.1-.3-.4-.1-.1-.4-.5zm-1.3-.8c0 .8 4.9 4 5.1 5 0 .3-.1.4.1.7.3-.1.2-.2.3-.5.1-.6.6-1.3.6-1.8-.6 0 .2 0-.8.6-.4-.2-.6-.3-.9-.6-.3-.2-.6-.5-.9-.7.9-1.9.1-2 1.7-1.8h1.1c.4.6-.1.4.2 1 .2-.1.1.1.3-.6.2-.7.7-1.9.7-2.2-.6.1-.3.7-1.3.9-.8.2-2.9-.1-4.2.1-.5-.1-1.4-.2-2-.1z" class="st2"/>
    <path id="path927" d="M253 323.4l1.1 1.4c.3-.5-.4-.8-.2-1.7.1-.5.4-1.1.8-1.4.4.1 4.4 2.7 4.7 3.1.1.6-.2.6-.1 1.1.4-.1.7-.9.9-1.3.3-.4.8-.9.8-1.4-.6 0 .1 0-1 .6-.6-.4-4.7-2.8-4.7-3.2 0-.2.8-1.5 1.7-1.5.4 0 .6.3.8 0-.2-.2-1.3-.6-1.6-.7l-1.5 2.6c-.3.4-.6.8-.8 1.2-.3.4-.7.8-.9 1.2z" class="st2"/>
    <path id="path929" d="M247.4 339c-.1.8-.1 2.1-.2 3.1-.1.6-.3 2.4-.5 2.9.2.2 1.4.7 1.7.7 0-.3.1-.2-.3-.4-.9-.6-.7-1.8-.7-2.5l.3-.2 4.2.5c.1 0 .8.1.9.1.8.2.4.9.7 1.2.2-.3.2-1.2.2-1.6.1-.4.3-1.3.2-1.5-.7.3.3.9-1.3.9-.3 0-.9-.1-1.3-.2s-.8-.1-1.3-.2l-1.9-.2c-1.1-.1-.2-1.8-.2-1.8.3-.4.5-.5.9-.6.5-.1.2.1.3-.2-.3-.2-1.3-.1-1.7 0z" class="st2"/>
    <path id="path931" d="M248.7 352.3c-.3-.3-1.5.2-1.6.3 0 .3.1.2 0 .4 0 .4-.2.7.1 1.5.4 1.2 1.9 1.8 2.9.9.7-.7 1.1-2.6 1.7-3 1.5-1 2.5.9 1.8 1.9-.3.5-1.1.7-1.3 1.1.3.2 0 .1.4.1.3-.1.2-.1.4-.1.3-.1.6-.1 1-.2-.2-.5.6-2.5-.8-3.4-.2-.2-.5-.3-.8-.3-1.3-.1-1.6.2-2.2 1.3-.5.9-.8 2.7-2.2 2.2-.6-.2-.8-1-.6-1.5.2-.8.9-.8 1.2-1.2z" class="st2"/>
    <path id="path933" d="M304 366.4c0 .4 0 .9.3 1.2.6-.1.8-.1 1.4 0 0-.2-.1-1.5-.1-1.8-.1-.3 0-.6 0-.9 0-.4-.3-.4.1-.7.2.3.2 3 .3 3.3.3.1 1.1-.3 1.7.4.1-.6-.7-1.6-1.1-2.9-.2-.6-.9-2.6-1-3.1-.3.4-1.6 4-1.6 4.5z" class="st3"/>
    <path id="path935" d="M306.2 388.7s.1-.1.5.1c.5.3.8.9.9 1.4.6 2-1.6 2.7-2.4.2-.3-1.1-.3-1.5 1-1.7zm-1.1.1c-.1-1.4.3-2 1.1-2.8.2-.2.6-.4.7-.6-.6-.1-1.3.5-1.8 1s-.8 1.1-1 1.9c-.6 2.9 2 5 3.7 3.5 1.3-1.2.4-4.5-2-3.6-.4.2-.4.4-.7.6z" class="st2"/>
    <path id="path937" d="M271.7 344l3.5-.6c.1-.9 0-1.6-.1-2.5-.4 0-3.1-.1-3.2 0-.3.2-.1 1.2-.1 1.5 0 .3-.1 1.4-.1 1.6z" class="st3"/>
    <path id="path939" d="M293.1 343.6c.9.1 2.7.1 3.5-.1 0-.1 0-2.1-.1-2.5h-3.1c-.2.1-.1-.1-.2.2 0 .1-.1.2-.1.3z" class="st3"/>
    <path id="path941" d="M303.9 363c1.3-.7 1.7-2.2 1.9-3.4.1-.5-.5-1.1-.9-1.7-.3-.4-.8-1.4-1.1-1.7-.5 1-.1 2.1-.1 3.2z" class="st3"/>
    <path id="path943" d="M334.9 341.8c-.1-.2-.2-.3-.2-.5-.1-.3 0-.3-.4-.3l.4 3.1c.5-.4-.2-1.1 1.1-1.2l3.1-.4c1.5-.1 1.8-.5 2.1.4.1.4 0 .3.3.4.2-.3-.1-1.1-.1-1.5-.1-.5 0-1.2-.2-1.7-.2.1-.1-.2-.2.3-.2 1.2-.2.8-2.3 1.1-.5.1-1.3.2-1.7.2-.8.1-1.2.4-1.9.1z" class="st2"/>
    <path id="path945" d="M306.3 372.6c.2 1.4.2 1.2-.4 2.5h1.4c-.7-1.4.4-5.9.4-6.8-.1-1-1.2-.7-1.6-.7z" class="st3"/>
    <path id="path947" d="M306 372.6c-.1-.6-.2-4.1-.4-4.7-.5-.2-.9-.3-1.3.1.1.2 1.1 5.9.9 6.3-.4.3-1.3.4-1.7.9h1.9c.1-.2.1-.4.3-.7.5-.6.5-1.3.3-1.9z" class="st3"/>
    <path id="path949" d="M323.4 388.7c.7.1 3.5.4 3.9.2.5-.1 1.9-1.5 2.4-1.9-.9-.1-3-.1-3.8.1-.6.1-2 1.3-2.5 1.6z" class="st3"/>
    <path id="path951" d="M277.8 395.4l1.8 2.7c.5.7.6.7 1.4.9.5.1 1.4.4 1.8.4-.1-.3-1.6-2.2-1.9-2.7-.5-.6-.8-.6-1.5-.8-.2-.2-1.2-.5-1.6-.5z" class="st3"/>
    <path id="path953" d="M297.2 387.7c0 .5.1 1.1-.1 1.5.5 0 .3 0 .5-.5.3-.2 1.5-.3 1.8-.3l.2.3c-.1.8-.4 1.7-.8 2.5-.3.7-.9 1.8-.6 2.6.4.1.7.1 1.1 0-.1-.6-.4-.4-.1-1.6.3-1.3 1.7-3.6 1.3-4.8-.5-.1-2.6.3-3.3.3z" class="st2"/>
    <path id="path955" d="M337.4 374c.3-.1 2.9-1 3.3-1.2.8-.4 1.3-2 1.7-2.8-.5 0-1.1.5-1.6.6-1.4.5-2.1.8-2.7 1.9-.1.5-.6 1.1-.7 1.5z" class="st3"/>
    <path id="path957" d="M290.4 387.8l-.3 1.3c.4.2.3-.1.6-.4.7-.1 1.2 0 1.8.1.1 1.8-2.7 3.5-2.3 5.2h1c.1-.5-.2-.6.3-1.7.2-.5.6-1 .8-1.4.4-.7 1.5-2.2 1.3-3-.1 0-2.8-.3-3.2-.1z" class="st2"/>
    <path id="path959" d="M242.9 362.4c.3-.4 1-2.3 1.3-2.8.3-.7.3-1 .1-1.7-.1-.5-.2-1.4-.4-1.7-.5.7-1.1 2-1.5 2.8-.4.8-.2 1 0 1.7.2.5.3 1.1.5 1.7z" class="st3"/>
    <path id="path961" d="M338.6 322.3c.1-.6.2-1.3.3-1.9.1-.6.2-1.4.3-2 0-.3-1.4-2.4-1.7-2.6v1c0 .4-.1.5-.1.9l-.1 1.9c0 .7.9 2.1 1.3 2.7z" class="st3"/>
    <path id="path963" d="M344.4 355.1c.8-.6 1.5-1.6 2.2-2.1.9-.7.7-1.3.9-2.4v-1.1l-2.1 2.2c-.6.6-.7.6-.7 1.5 0 .4-.3 1.4-.3 1.9z" class="st3"/>
    <path id="path965" d="M328.7 384.6l2.9-.2c.2 0 .7-.1.9-.2.4-.1 1.8-1.7 2.1-2.1-.4 0-1.4.2-1.9.2-1.7.2-2.1.3-3.1 1.2-.2.3-.7.7-.9 1.1z" class="st3"/>
    <path id="path967" d="M298.1 397.9c.6.6 1.9 1.3 2.6 1.8.8.5.7.4 1.7.3.5-.1 1.5-.2 1.8-.3-.7-.5-1.9-1.1-2.6-1.6-.7-.5-1.1-.4-1.6-.3-.7-.1-1.4-.1-1.9.1z" class="st3"/>
    <path id="path969" d="M248.8 375.3c.2-.2.6-3.1.6-3.5 0-.8-.1-.8-.4-1.5-.2-.3-.5-1.1-.7-1.3-.1.2-.8 3.1-.8 3.5-.1.7.3 1 .6 1.6 0 .2.5 1 .7 1.2z" class="st3"/>
    <path id="path971" d="M341.6 328.4c.1-.6.7-2.5.9-3.4.2-.8 0-.8-.3-1.6-.3-.5-.5-1-.8-1.4-.2.4-.7 2.8-.8 3.4-.1.7.2 1 .4 1.6 0 .3.4 1.2.6 1.4z" class="st3"/>
    <path id="path973" d="M280.5 295.4c.6.5 2.7 1.3 3.6 1.6.5.1.4.1.9 0 .6-.1 1.2-.2 1.9-.3-.2-.3-2.3-1.5-2.8-1.7-.8-.4-.8-.3-1.7-.1z" class="st3"/>
    <path id="path975" d="M300.5 296.6c-.6-.8-1.5-1.4-2.2-2.1-.6-.6-.5-.6-1.4-.8-.4-.1-1.7 0-2.2 0l.3.2c.8.7 2.5 2.5 3.5 2.5.4 0 .6 0 1 .1.2 0 .8.1 1 .1z" class="st3"/>
    <path id="path977" d="M311.3 395c.3.1 1.3.4 1.7.5 2.7.9 1.9.8 3.3.2.4-.2 1.2-.5 1.5-.8-.5-.2-1.1-.3-1.6-.4-2.7-.6-2-.6-4.9.5z" class="st3"/>
    <path id="path979" d="M240.7 348.3c.4-.3 1.5-1.8 2-2.3.4-.4.7-.8.7-1.4 0-.7.1-1.3.1-2-.4.4-.6.7-1 1.1-.4.4-.7.7-1 1.1-.5.6-.7.6-.7 1.4-.1.7-.2 1.4-.1 2.1z" class="st3"/>
    <path id="path981" d="M314.4 342.8l2.6.3c.3 0 .6.2.9.2 0-.1-.1-2.3-.1-2.3-.5-.2-2.7-.1-3.3 0-.1.6-.1 1.2-.1 1.8z" class="st3"/>
    <path id="path983" d="M251.5 314.9l3.6-.8c.6-.2 1.8-1.6 2.2-2.1-.4 0-3.2.5-3.7.6-.7.2-1.8 1.8-2.1 2.3z" class="st3"/>
    <path id="path985" d="M308.1 396.1c.2.2 2.6 1.1 3.1 1.3.8.3 1 0 1.7-.2.4-.2 1.2-.4 1.5-.6-.6-.3-2.3-.8-3.1-1-.7-.2-1-.1-1.7.1-.4 0-1 .2-1.5.4z" class="st3"/>
    <path id="path987" d="M307.2 297.8c-.6-.8-1.3-1.7-1.9-2.5-.6-.8-.5-.6-1.4-.8-.5-.1-1.5-.3-2-.3.3.4 1.6 1.9 2.1 2.3.6.6.5.7 1.3.9.4.1 1.4.5 1.9.4z" class="st3"/>
    <path id="path989" d="M340.5 368c.1.1.1 0 .8-.3.3-.1.5-.3.8-.4 2.2-1.1 1.9-.8 2.4-2.1.2-.5.5-1.2.6-1.7-.9.5-1.9 1.1-2.8 1.7-.8.5-.6.4-1 1.3-.2.4-.5 1.2-.8 1.5z" class="st3"/>
    <path id="path991" d="M273.4 396.4l2.7 1c-.2-.7-1.2-2.2-1.6-2.9-.3-.5-.8-.7-1.3-1-.3-.2-1.2-.6-1.6-.7z" class="st3"/>
    <path id="path993" d="M241.3 355.4c.3-.2 1.3-2.1 1.6-2.5.4-.6.5-.8.5-1.6l-.1-2c-.2.1 0-.1-.3.2l-.7 1c-1.8 2.7-1.3 1.7-1 4.9z" class="st3"/>
    <path id="path995" d="M330.4 311.4c.1-.6-.3-3.2-.5-3.7s-.3-.7-1-1.1c-.4-.3-.7-.7-1.2-1 .3.8.4 2.8.7 3.5.2.7 1.4 1.8 2 2.3z" class="st3"/>
    <path id="path997" d="M325.4 306.9c-.2-.5-.4-1.3-.5-1.8-.2-.6-.3-1.3-.5-1.8-.2-.7-1.9-1.5-2.6-2 .3 1.1.8 2.3 1.2 3.4.3.8.5.8 1.1 1.2.4.4.9.8 1.3 1z" class="st3"/>
    <path id="path999" d="M344.7 341.5c.2-.1 2.1-3.3 2.1-3.5 0-.8-.4-2-.6-2.8l-1.5 2.7c-.4.7-.4.9-.3 1.7.2.6.2 1.3.3 1.9z" class="st3"/>
    <path id="path1001" d="M313.6 300.1c-.1-.4-1.3-2.6-1.6-2.9-.5-.7-.6-.7-1.3-.9-.4-.1-1.5-.5-1.8-.5.4.8 1.3 1.9 1.8 2.7.6.9 1.9 1.1 2.9 1.6z" class="st3"/>
    <path id="path1003" d="M244.5 327.3c.9-.5 2.1-1 3-1.6.8-.5.6-.4 1.1-1.3.2-.5.6-1.1.7-1.5-.8.5-2.2.9-3.1 1.4-.8.5-.7.4-1 1.3-.2.5-.7 1.4-.7 1.7z" class="st3"/>
    <path id="path1005" d="M258 386.3c-.1-.3-.3-3-.5-3.6-.3-1-1.2-1.6-1.8-2.4 0 .4.1 3.7.2 3.9 0 .4 1.7 2.1 2.1 2.1z" class="st3"/>
    <path id="path1007" d="M284.4 397.1c.3.5.8.8 1.1 1.2.2.3.8.9 1 1.2.8.8.4.6 1.5.7l2 .2c-.6-.9-1.5-1.5-2.3-2.2-.6-.6-.5-.7-1.4-.8-.5-.1-1.3-.3-1.9-.3z" class="st3"/>
    <path id="path1009" d="M319.7 303.1c-.5-1-.8-2.2-1.3-3.2-.3-.7-.6-.7-1.3-1-.4-.2-1.3-.6-1.6-.7 0 .3 1.3 2.7 1.5 3.1.5.8 1.5 1.1 2.7 1.8z" class="st3"/>
    <path id="path1011" d="M252.9 381.1c.1-.5.1-3.3 0-3.8s-1.1-2-1.5-2.4c-.2.3-.3 3.5-.3 3.8.1.4 1.5 2.1 1.8 2.4z" class="st3"/>
    <path id="path1013" d="M267.3 300.9c1.1.2 2.3.4 3.5.6.9.1 2.2-.7 3.1-1.1l-3.6-.9c-.6-.1-.8 0-1.6.5-.3.2-1.1.6-1.4.9z" class="st3"/>
    <path id="path1015" d="M283.6 387c0 .5.3.2.7.5.1.5-.7 3.2-.9 4.1-.2 1-.5.4-1 .8.1.3.2.2.5.3l2 .5c0-.6-.5-.2-.5-.9 0-.5 1.3-4.8 1.2-5.4-.8 0-1.4 0-2 .1z" class="st2"/>
    <path id="path1017" d="M269.5 394.5c-.4-1.1-.9-2.1-1.3-3.2-.3-.7-.5-.8-1.2-1.1-.4-.2-1-.8-1.4-.9.4 1 .7 2.4 1.2 3.3.4.7.5.7 1.2 1.1.5.3 1 .6 1.5.8z" class="st3"/>
    <path id="path1019" d="M342.9 361.8c.8-.6 1.8-1.3 2.6-1.9.6-.4.7-.6.9-1.3.1-.5.4-1.5.4-2-.5.3-2 1.6-2.5 2-.6.6-.6.5-.9 1.4-.1.6-.3 1.1-.5 1.8z" class="st3"/>
    <path id="path1021" d="M241.1 341.2l2.3-2.1c.5-.5.7-.8.8-1.4.1-.3.3-1.6.3-1.9-.3.3-.9.7-1.2 1-1.2 1.2-1.8 1.1-2 2.5-.1.4-.3 1.4-.2 1.9z" class="st3"/>
    <path id="path1023" d="M273.8 297.7c.3.2 2.6.9 3.1 1 .9.2 1 .1 1.7-.1.3-.1 1.4-.3 1.6-.6-.6 0-2.5-1-3.2-1.2-.9-.3-1.7.2-2.8.6z" class="st3"/>
    <path id="path1025" d="M334.9 316.6c.1-.7.1-3.4-.1-4-.2-.5-1.6-2.1-1.8-2.2v.9c.1.3 0 .7 0 1.1l.2 1.9c.2.5 1.2 1.7 1.7 2.3z" class="st3"/>
    <path id="path1027" d="M243.3 330.6c.4-.1 2.2-1.3 2.8-1.7.5-.3.7-.7.9-1.3.2-.5.5-1.1.6-1.6-.9.5-2 1-2.9 1.5-.7.4-.6.4-.9 1.3-.1.7-.3 1.3-.5 1.8z" class="st3"/>
    <path id="path1029" d="M246 324.1c1-.5 2-.9 3-1.4.9-.5 1.5-1.6 2-2.6-.6.1-2.5.9-3.3 1.1-.4.2-.4.1-.6.5-.3.7-1.1 2-1.1 2.4z" class="st3"/>
    <path id="path1031" d="M345 345.6v2.7c.6-.8 1.3-1.6 1.9-2.4.5-.7.5-.6.6-1.6 0-.4-.1-1.7-.2-2z" class="st3"/>
    <path id="path1033" d="M287.6 294c.7.5 1.7 1.2 2.5 1.7.6.4.8.6 1.5.5.6-.1 1.4 0 2.1 0-.2-.2-2.1-1.6-2.5-1.9-.2-.2-.4-.3-.7-.4-.5-.2-.5-.1-.9-.1-.7.1-1.3.2-2 .2z" class="st3"/>
    <path id="path1035" d="M242.3 334.1c.2-.1 2.4-1.6 2.7-1.9.6-.4.7-.7.9-1.3.2-.5.5-1.2.6-1.7-.9.6-1.9 1.1-2.8 1.7-.7.4-.7.6-.9 1.3-.2.7-.4 1.3-.5 1.9z" class="st3"/>
    <path id="path1037" d="M258.8 307.1c.9.1 2.9.1 3.8-.1.4-.1 2.2-1.4 2.3-1.6l-1.9-.1c-.7 0-1.2-.2-1.9 0-.3 0-2.1 1.6-2.3 1.8z" class="st3"/>
    <path id="path1039" d="M303.9 297.1c0-.2-1.9-2.3-2.6-2.9-.2-.2-.6-.2-.9-.2l-2-.2c.1.2 1.9 1.9 2.2 2.2.7.9 1.7.9 3.3 1.1z" class="st3"/>
    <path id="path1041" d="M255.4 383.8l-.3-3.7c-.1-.5-.8-1.2-1.2-1.8-.3-.4-.3-.5-.5-.5-.1.7-.1 3.3.1 3.9 0 .1 1.6 1.9 1.9 2.1z" class="st3"/>
    <path id="path1043" d="M287.8 397.6c.3.5 1.7 1.7 2.2 2.2.5.5.8.7 1.5.6l2 .1c-.4-.5-1.7-1.6-2.3-2.1-.7-.7-.6-.5-1.5-.7z" class="st3"/>
    <path id="path1045" d="M245.5 369.1c.2-1.1.6-2.2.9-3.3.2-.7.2-1-.1-1.7-.2-.4-.4-1.3-.6-1.6l-1.2 3.2c-.2.7 0 1 .3 1.7.1.6.5 1.5.7 1.7z" class="st3"/>
    <path id="path1047" d="M320.6 390.7c.8.1 3.1.4 3.6.4.3 0 2.2-1.4 2.4-1.6-.3-.2-2.4-.2-3.1-.3-.9-.1-1.6.6-2.3 1.1-.3.1-.5.1-.6.4z" class="st3"/>
    <path id="path1049" d="M344.3 338c.3-.4 1.3-2.3 1.5-2.8.1-.2.3-.5.2-.7l-.7-2.6c-.3.4-1.1 2.3-1.3 2.8-.3.8-.3.8-.1 1.7.1.3.3 1.3.4 1.6z" class="st3"/>
    <path id="path1051" d="M300 399.7c-2.3-1.6-2-1.7-4.4-1.7-.4 0-.5.1-.9.1.1.2 2.1 1.7 2.4 1.9 1.2.8 1.2.4 3.5.3-.1-.2.1 0-.2-.3-.2-.2-.2-.3-.4-.3z" class="st3"/>
    <path id="path1053" d="M340.1 325.1c.1-.4.8-3.1.8-3.5 0-.5-1.2-2.4-1.5-2.8-.1.6-.1 1.2-.2 1.7s-.2 1.3-.2 1.7c0 .8 0 .9.4 1.5l.7 1.4z" class="st3"/>
    <path id="path1055" d="M261.5 304.8c.4 0 3.3.3 3.7.2.6-.1 2-1 2.5-1.4-1.3-.2-2.6-.5-3.9-.5-.2.1-2.1 1.4-2.3 1.7z" class="st3"/>
    <path id="path1057" d="M247.5 320.9c.8-.3 2.6-.9 3.2-1.2.8-.4.7-.4 1.1-1.1.3-.4.8-1 .9-1.4-.3.1-1.3.4-1.7.5-2 .6-2 .4-2.8 1.7-.1.5-.5 1.1-.7 1.5z" class="st3"/>
    <path id="path1059" d="M304.7 396.9l.2.2 1.7.7c.6.3 1.3.5 1.9.9l2.7-.9c-.3-.2-2.5-1.1-2.9-1.3-1.5-.5-2.3.3-3.6.4z" class="st3"/>
    <path id="path1061" d="M272.7 396c-.2-.7-1.1-2.3-1.4-3-.4-.8-.5-.6-1.2-1-.3-.2-1.1-.7-1.4-.8.3.7 1.1 3.4 1.8 3.7.3.1.5.2.8.4.4.2.9.5 1.4.7z" class="st3"/>
    <path id="path1063" d="M263.5 390.9l-.9-3.5c-.3-.8-1.6-1.8-2.2-2.3l.7 3.7c.1.6 1.8 1.7 2.4 2.1z" class="st3"/>
    <path id="path1065" d="M249.4 317.9c.8-.3 2.7-.7 3.4-1 .6-.3.7-.5 1.1-1 .3-.3.9-.9.9-1.3-.5.1-3.2.6-3.5.8-.5.3-1.6 2-1.9 2.5z" class="st3"/>
    <path id="path1067" d="M241 351.9c.5-.7 1.1-1.6 1.7-2.4.3-.4.6-.9.6-1.4v-2c-.3.2-.8.8-1 1.1-.3.4-.7.8-1 1.2-.5.7-.6.7-.5 1.7z" class="st3"/>
    <path id="path1069" d="M256.1 309.6l3.8-.4c.5-.1.9-.4 1.2-.8.3-.3.9-.7 1.1-1l-2 .1c-.6 0-1.5-.1-2 .1-.3.1-1.9 1.7-2.1 2z" class="st3"/>
    <path id="path1071" d="M314.5 393.8c1.4.2 2.6.8 4 .8l2.4-1.3c-.2-.2-3.1-.6-3.5-.7-.8-.1-.9.2-1.6.5-.4.3-.9.4-1.3.7z" class="st3"/>
    <path id="path1073" d="M284.2 294.7l3.2 1.9c.4.2 2.4-.2 2.8-.2-.2-.2-2.1-1.5-2.5-1.7-.7-.5-.9-.4-1.7-.3-.3-.1-1.6.1-1.8.3z" class="st3"/>
    <path id="path1075" d="M327.9 309c.1-.5-.5-3.1-.7-3.6-.3-.7-1.7-1.5-2.3-1.9 0 .5.7 2.8.9 3.4.2.7 1.5 1.6 2.1 2.1z" class="st3"/>
    <path id="path1077" d="M291.2 397.9c.4.5 2.9 2.6 3.1 2.7h2.7c-.1-.3-2-1.6-2.3-1.9-1.5-1.3-2.4-.4-3.5-.8z" class="st3"/>
    <path id="path1079" d="M333.4 379.6c.4-.2 2.6-.5 3.5-.8.6-.2.7-.6 1.1-1.1.3-.5.6-.9.9-1.3-.3 0-2.9.7-3.4.9-.6.2-.7.5-1.1 1-.4.4-.8.9-1 1.3z" class="st3"/>
    <path id="path1081" d="M270.6 299.2c.2.1 2.8.8 3.2.8.9.1.8.1 1.6-.2l1.5-.6c-.4-.2-2.7-1-3.2-1.1-.8-.2-.9 0-1.6.4-.5.2-1.1.4-1.5.7z" class="st3"/>
    <path id="path1083" d="M317.6 392.3c.6.1 1.1.2 1.7.3 2.4.4 1.8.6 3.3-.3.2-.1 1.1-.7 1.2-.9-.6-.1-1.2-.2-1.8-.2l-1.8-.3c-.4.1-2.1 1-2.6 1.4z" class="st3"/>
    <path id="path1085" d="M336.8 319.2c0-.3.1-.6.1-.9l.1-2c0-.5 0-.6.1-1-.3-.5-1.5-2-1.9-2.3-.1 1.1-.1 2.7.1 3.7.1.5 1.2 2.3 1.5 2.5z" class="st3"/>
    <path id="path1087" d="M301.5 397.5c.3.4 1.2.7 1.7 1 2.1 1.3 1.7.9 4.5.2-.2-.2-2.4-1.1-2.9-1.3-.8-.4-.8-.4-1.6-.2-.6.1-1.2.2-1.7.3z" class="st3"/>
    <path id="path1089" d="M335.5 376.9l3.3-1c.7-.3 1.7-2.4 1.8-2.6-.3 0-2.8.9-3.2 1.1-.6.4-1.8 2.2-1.9 2.5z" class="st3"/>
    <path id="path1091" d="M264.5 302.7c.4.2 1.2.2 1.7.3.2 0 .6.1.8.1 1.4.2 1.2.1 2.4-.5.3-.1 1.1-.6 1.3-.7-.5-.2-1.3-.3-1.9-.4-.3-.1-1.8-.3-2-.4z" class="st3"/>
    <path id="path1093" d="M247 372.2c.1-.2.8-2.9.8-3.3.1-.7-.7-2.4-1-3l-.9 3.4c-.2.7.1 1 .4 1.6.2.3.4.9.7 1.3z" class="st3"/>
    <path id="path1095" d="M331.2 382.1c.4 0 3.4-.4 3.6-.5.3-.2 1.6-1.9 1.9-2.3-.2 0-3.2.6-3.4.7-.6.2-1.8 1.5-2.1 2.1z" class="st3"/>
    <path id="path1097" d="M343.5 334.8l1.4-3.1c.4-.9.2-.9-.1-1.7-.2-.6-.4-1.1-.6-1.7-.2.4-.3 1-.5 1.5-1.5 3.6-.3 3-.2 5z" class="st3"/>
    <path id="path1099" d="M241.6 337.7c.4-.3.8-.7 1.2-1 2.8-2 1.7-2 2.6-4.2-.8.6-1.8 1.3-2.6 1.9-.5.3-.7.8-.8 1.4-.2.4-.4 1.5-.4 1.9z" class="st3"/>
    <path id="path1101" d="M342.7 331.4c.2-.4.4-1 .6-1.5.8-2.2.9-1.9.3-3.2-.2-.4-.5-1.2-.7-1.5-.2.4-.7 2.5-.9 3.2-.2.8-.1.9.1 1.6.1.2.4 1.3.6 1.4z" class="st3"/>
    <path id="path1103" d="M326.2 386.7c1.3.1 2.7.1 3.9-.1.4-.4 1.9-1.6 2-2-.3.1-3 .2-3.6.4-.7.1-1.8 1.3-2.3 1.7z" class="st3"/>
    <path id="path1105" d="M291.1 293.8c.3.3 3 2.3 3.4 2.4l2.5.1c-.1-.2-.9-.8-1.1-1-1-.8-1.5-1.8-2.7-1.6-.7.1-1.4 0-2.1.1z" class="st3"/>
    <path id="path1107" d="M258.3 386.6c.1.4.8.7 1.1 1 .2.2 1 .9 1.2 1-.6-1.6.2-3.7-2.7-5.8 0 .4.1 1.4.2 1.8.1.7.2 1.5.2 2z" class="st3"/>
    <path id="path1109" d="M310.5 298.8l-1.8-2.7c-.6-.9-1.8-.9-3.2-1.2l1.9 2.6c.5.6.7.7 1.4.8.5.2 1.1.4 1.7.5z" class="st3"/>
    <path id="path1111" d="M242 358.9l.7-1.3c1.4-2.8 1.2-1.5.7-4.9l-1.6 2.7c-.7 1.4 0 1.3.2 3.5z" class="st3"/>
    <path id="path1113" d="M322.7 304.9c-.5-1-.7-2.2-1.2-3.3-.3-.7-.5-.7-1.2-1-.4-.2-1.1-.7-1.4-.8.1.5 1 2.7 1.3 3.2.3.6 1.8 1.6 2.5 1.9z" class="st3"/>
    <path id="path1115" d="M316.7 301.4c-.5-1-.9-2.1-1.5-3-.7-1.1-1.3-.7-2.9-1.6.1.4 1.3 2.3 1.6 2.9.5.8 2.5 1.7 2.8 1.7z" class="st3"/>
    <path id="path1117" d="M332.7 313.9c.1-.5-.1-3.4-.2-3.8-.1-.2-1.8-1.8-2-2 0 .4.3 3.3.5 3.6.2.7 1.2 1.5 1.7 2.2z" class="st3"/>
    <path id="path1119" d="M240.8 344.6c.3-.1 1.7-1.8 2.1-2.1.5-.5.6-.7.7-1.4.1-.4.1-1.6.3-1.9l-2.2 2c-.7.7-.6.4-.7 1.5z" class="st3"/>
    <path id="path1121" d="M277.2 296.5c1 .4 1.9.8 2.9 1.2 1.3.5 2.2-.2 3.4-.4-.1-.1.1 0-.1-.1l-2.9-1.3c-1-.4-1.2 0-2.5.3l-.6.2c-.2.1-.1.1-.2.1z" class="st3"/>
    <path id="path1123" d="M345 344.8c.3-.1 1.6-2.1 1.8-2.4.5-.7.4-.8.3-1.7-.1-.7-.1-1.3-.2-1.9-.5.7-1.1 1.7-1.6 2.5-.4.7-.5.7-.5 1.6 0 .4.1.5.1.9.1.3.1.7.1 1z" class="st3"/>
    <path id="path1125" d="M250.8 378.2l.2-3.6c-.1-.8-1.2-2.5-1.4-2.6-.3 3.2-1.1 3.3.2 5 .4.3.7 1 1 1.2z" class="st3"/>
    <path id="path1127" d="M244.1 365.7c.2-.2.9-2.5 1.1-3 .4-1.2 0-1.3-.4-2.9l-.1-.4-1.4 2.9c-.3.7-.1.9.2 1.6.2.6.4 1.3.6 1.8z" class="st3"/>
    <path id="path1129" d="M274.7 394.2c.6.9 1 2 1.6 2.8.5.8.5.6 1.4.9.4.1 1.3.5 1.7.5-.3-.4-.6-.9-.9-1.3-.9-1.2-.8-1.7-2.2-2.3-.5-.2-1.1-.5-1.6-.6z" class="st3"/>
    <path id="path1131" d="M253.8 312.2l3.6-.6c.4-.1 2.2-1.8 2.3-1.9l-3.8.4c-.6.1-1.8 1.5-2.1 2.1z" class="st3"/>
    <path id="path1133" d="M339.2 371.1c.9-.5 2-.9 2.9-1.4.9-.4.9-1.5 1.6-2.8-.7.2-2.1 1.1-2.9 1.5-.8.4-.6.5-.9 1.2-.3.4-.7 1-.7 1.5z" class="st3"/>
    <path id="path1135" d="M344.3 355.8l-.5 2.6c.3-.2.9-.7 1.2-.9.4-.3.8-.7 1.2-1 .7-.7.5-.3.7-1.4.1-.5.1-1.6.3-1.9z" class="st3"/>
    <path id="path1137" d="M341.8 365c.8-.5 2.4-1.7 3.3-2l.7-2.8c-.4.1-2.2 1.5-2.6 1.8-.7.5-.6.5-.9 1.4-.1.4-.3 1-.5 1.6z" class="st3"/>
    <path id="path1139" d="M344.9 351.6l2-2.1c.8-.8.5-1.1.6-2.6 0-.4.1-.5.1-1-.4.1-1.9 2.2-2.3 2.7-.3.4-.4 2.6-.4 3z" class="st3"/>
    <path id="path1141" d="M266.4 392.7c-.4-.9-.7-2.2-1.2-3.2-.4-.8-.3-.6-1-1.1-.3-.2-1-.8-1.3-.9l.9 3.4c.3.7.5.6 1.1 1 .5.2 1.2.7 1.5.8z" class="st3"/>
    <path id="path1143" d="M281.2 396.3c.5.8 1.3 1.7 1.9 2.5.5.7.5.7 1.4.8.5.1 1.4.3 1.9.2l-2.6-2.9c-.3-.1-2.2-.5-2.6-.6z" class="st3"/>
    <path id="path1145" d="M272.2 367.6h2.7v4.7h-2.7zm-.4 5.1h3.6v-5.4h-3.6z" class="st2"/>
    <path id="path1147" d="M306.2 388.7c-1.3.2-1.3.7-.9 1.7.8 2.5 3 1.9 2.4-.2-.1-.5-.4-1.2-.9-1.4-.5-.3-.6-.1-.6-.1z" class="st3"/>
    <path id="path1149" d="M269 348.6s-.1.1 0 0zm.7 1.1l-.4-2 1.5 1.3.4-.3c0-.3-.8-2.9-1-3.1l-.3.2c-.1.5.4 1.4.5 1.9l-1.5-1.3-.3.2c-.1.6.4 1.3.3 1.8-.5-.3-.9-.8-1.4-1.2l-.6.4 2.4 2.3z" class="st2"/>
    <path id="path1151" d="M293.5 367.6h2.3l.4.1v4.2l-.1.4H293.4v-4.7zm-.4 5.1h3.6v-5.4h-3.6z" class="st2"/>
    <path id="path1153" d="M313.3 347l-1.6-2-.4.1c0 .4.4 2.8.6 3.1h.3c0-.6-.2-1.1-.2-1.7l1.1 1.4h.4l.5-1.8.4 1.6.6-.1-.6-3-.4-.1c-.3.7-.4 1.9-.7 2.5z" class="st2"/>
    <path id="path1155" d="M272.6 356.9c0-.1 0 0 0 0s-.1.1 0 0zm1.4.3c-.4-.1-1.4-1.3-1.8-1.7l-.5.2c0 .4.9 2.8 1.1 3l.3-.1c0-.6-.4-1-.4-1.6.4.3.9 1.1 1.4 1.2.5-.4.1-1.2.5-2l.5 1.5.6-.2-1.1-2.9c-.7.1-.4.6-.5 1.1 0 .4-.1 1.1-.1 1.5z" class="st2"/>
    <path id="path1157" d="M284 319.8s-.1.1 0 0zm-1-1.7l1 1.6c-.3 0-2.1-.7-2.4-.8l-.3.2 1.8 3 .5-.3c-.3-.4-1-1.5-1-1.9l2 .8c.4.2.3.2.7.1 0-.3-1.5-2.8-1.8-3.1z" class="st2"/>
    <path id="path1159" d="M310.3 326.2l.3.4 1.7-1.2c0 .6-.7 2-.8 2.6l.2.2 2.9-2-.3-.5-1.6 1.1.6-2.1c.1-.4.2-.4-.1-.7-.3.1-1.1.7-1.5 1-.3.4-1.2.9-1.4 1.2z" class="st2"/>
    <path id="rect1161" class="st3" d="M290.8 374.4h8v.7h-8z"/>
    <path id="rect1163" class="st3" d="M312.2 374.4h8v.7h-8z"/>
    <path id="rect1165" class="st3" d="M269.5 374.4h8v.7h-8z"/>
    <path id="path1167" d="M308.5 323.5c.2-.6 1.4-1.9 1.9-1.7.9.4-.6 2-1.4 2.2-.4-.2-.3-.1-.5-.5zm1.3-2.2c-.2 0-.6 0-1.1.6-.2.2-.6.8-.7 1-.2.8.2 1.9 1.6 1.7 1.3-.2 2.7-2.5 1-3.3-.7-.3-.8 0-.8 0z" class="st2"/>
    <path id="path1169" d="M278.8 321.8c1.1-1.1 2.1 1.5 2.1 1.5-.3.4-.1.3-.6.5-.6-.4-1.6-1.2-1.5-2zm.4-.9c-.4.2-.7.3-.9.8-.4 1.2 1.2 3 2.4 2.5.9-.4 1.2-1.3.7-2.1-.5-.6-1.4-1.5-2.2-1.2z" class="st2"/>
    <path id="path1171" d="M314.9 372.3c-.2-.5-.1-3-.1-3.7 0-1.1-.2-1 .9-1 .5 0 1.3-.1 1.8.1.1.4.1 4.2 0 4.6-.3.1-2.2.1-2.6 0zm-.4.4h3.5v-5.4h-3.5z" class="st2"/>
    <path id="path1173" d="M329.1 320.1c0 .2.8 2.1 2.4 1 1.1-.8.9-1.6-.1-2.4-.5 0-1.8 1-2.3 1.4z" class="st3"/>
    <path id="path1175" d="M302.2 316.3l-.5-.2c-.2.7-.5 2.4-.9 2.8-.5.1-.4 0-.8-.2-.1-.5-.1-.2 0-.7l.6-2.2-.7-.2c-.2.4-.4 1.6-.6 2.1-.3.8-.2 1.4.8 1.7 1 .3 1.3 0 1.6-.9.1-.6.4-1.7.5-2.2z" class="st2"/>
    <path id="path1177" d="M312.7 365c.3.5.9.4 1.5.4s4.8.1 5.2-.1l.2-.1c.2-.1 0 0 .1-.1l-.1-.4c-.3-.1-5.2-.1-6.3-.1-.4 0-.4 0-.6.4z" class="st3"/>
    <path id="path1179" d="M268.3 359.7c-.2.4-.2.3-.6.5l-.9-2 .5-.1c.6.2.9 1.1 1 1.6zm-2.3-1.6c.5.7.8 2.3 1.3 2.8 1.2-.6 2.2-.6 1.4-2.3-.6-1.4-1.8-1.2-2.7-.5z" class="st2"/>
    <path id="path1181" d="M318.8 348.2c0-.4.7-1.6 1-2 .6.2.6.6.3 1.1-.6 1.2-.7 1-1.3.9zm-.9.1c1.2.5 1.9 1.3 2.7-.4.2-.5.5-1.2.1-1.6-.3-.4-.9-.7-1.4-.8z" class="st2"/>
    <path id="path1183" d="M270.1 364.9c.2.6.9.5 1.5.5h3.9c.6 0 1.4.2 1.6-.5-.3-.4-1.1-.3-1.6-.3h-3.7c-.6 0-1.4-.2-1.7.3z" class="st3"/>
    <path id="path1185" d="M291.4 364.9c.2.6.9.5 1.5.5h3.9c.6 0 1.4.2 1.6-.5-.3-.4-1.1-.3-1.6-.3h-3.7c-.6 0-1.4-.2-1.7.3z" class="st3"/>
    <path id="path1187" d="M287.6 318.8v.4c-.4.4-.9.4-1.4.4l.2.6c.6 0 1.9-.4 2-1.2.1-.3-.2-.9-.5-1.1-.5-.3-.9-.2-1.4-.3l-.2-.4c.4-.5.8-.4 1.3-.5l-.2-.5c-.7-.1-1.9.4-1.8 1.3.2 1.4 1.5.8 2 1.3z" class="st2"/>
    <path id="path1189" d="M324.4 350.3c.2.3.2.3.2.6-.2.2-.2.2-.5.2l-.3-.4zm-2.6.8l.4.6c.3-.2.9-.7 1.3-.6l.1.4-.9.9.3.6c.6-.5 1-.6 1-1.4.9.1.3.5 1.3-.3.1-.7-.4-1.3-.8-1.8z" class="st2"/>
    <path id="path1191" d="M318.8 353.9l1.2.4c0-.2-.1 0 0-.3.5-.2.7-.2.7-.9 0-.9-1.4-2.3-1.9-2.6z" class="st3"/>
    <path id="path1193" d="M319.8 359.4c0-.6.5-1.5.9-1.9.3 0 .3 0 .6.2.1.7-.3 1.6-.9 2zm.6-2.3c-.7.3-1.1 1.1-1.1 1.8-.2 1.6 2.5 1.9 2.7-.6.1-.9-.8-1.5-1.6-1.2z" class="st2"/>
    <path id="path1195" d="M305.3 354.1c.2-.1.1-.1.4 0-.3.1-.2.1-.4 0zm-.2-.3c.2.1.4.2.7 0-.2-.1-.5-.1-.7 0zm1.6-.1c-.3-.4.1.1.1-.9h.1c0 .4.1.7-.2.9zm-.9-1.2c.3.1.1 0 .4.2-.4.3-.5.2-.7-.1.2-.3.5-.4.8-.1zm0 .1c-.2 0-.1 0-.2.1zm-1.3-.6v.3l.8.2c0 .6 0 .4-.2.8.3.1 0-.1.4.1-.2.1-.2.1-.5.1 0-.6.2-.4.2-.8-.2.2-.3.2-.7.1.3.7.1 1.3.9 1.8.6-.2.6-.5 1-.5-.1.3-.2.2-.3.5l.9-.6c0-.3 0-.4.1-.7.1-.3.1-.4.1-.7-.2-.3-1.9-1.1-2.7-.6z" class="st3"/>
    <path id="path1197" d="M316.3 347.5c-.4-.4-.2-1-.1-1.5.1-.6.4-1 1-.5.1.7 0 1.6-.4 2.1zm0-2.7c-.4.2-.6.2-.7.7-1 2.3 1.3 3.4 2.1 1.7.1-.3.3-.9.3-1.2-.1-.9-.8-1.5-1.7-1.2z" class="st2"/>
    <path id="path1199" d="M270 356.8c.6-.2 1.1 1.4 1.2 1.8l-.3.4h-.5c-.4-.5-.8-1.3-.7-1.9zm-.2-.4c-.4.2-.6.2-.7.7-.3.8.5 2.8 1.9 2.3 1.6-.5.4-3.7-1.2-3z" class="st2"/>
    <path id="path1201" d="M323.4 361.8c.3 0 .1.1.3-.2l1.4-2.5-.4-.2c-.3.4-.7 1.3-1 1.5-.1-1 0-2.1-.6-2.4l-1.6 2.8.4.2 1-1.6c.2.4.4 2.2.5 2.4z" class="st2"/>
    <path id="path1203" d="M314.5 354.9l-.3 1c-.2 0-.4-.2-.6-.4zm-2.4 1.1l.4.4.7-.5.7.5c0 .4-.1.5-.1.9l.5.4c.4-.5.8-2.5 1.1-3.2l-.5-.4z" class="st2"/>
    <path id="path1205" d="M291.1 344.7l-.5-.2c-.2.6-.5 2.1-.9 2.5h-.5l-.3-.3c.1-.5.7-2.1.6-2.4l-.5-.3c-.2.6-.4 1.3-.6 1.9-.2.8-.1 1.3.7 1.5 1.7.5 1.4-1.3 2-2.7z" class="st2"/>
    <path id="path1207" d="M279.2 325.7l-.4-.3c-.4.6-.4 1.2-1.4.8-.6-.2-1.1-.8-1.1-1.4.1-.4.3-.5.6-.7-.7-1-1.3.7-1.3 1 0 1 1.4 2.2 2.5 1.9.6-.2.8-.8 1.1-1.3z" class="st2"/>
    <path id="path1209" d="M300.8 344l1.5 2.8 1.7-.8-.1-.4c-.4 0-.7.3-1.1.4l-.4-.7.8-.4-.2-.5-.8.4-.4-.7 1-.6-.2-.4c-.5.1-1.5.6-1.8.9z" class="st2"/>
    <path id="path1211" d="M320.2 349.5l1.4 1.4.3-.4-.9-.8.5-.6c.3.1.4.3.7.6l.3-.4-.6-.6.5-.6.8.8.4-.3-1.4-1.3z" class="st2"/>
    <path id="path1213" d="M292.7 347.1l-.2.3c-.9.1-.7-.1-1.3-.2v.5c.6.4 1.9.5 2.1-.3.4-1.1-.7-1.1-1.2-1.7.3-.6.7-.4 1.2-.2l.1-.5c-.6-.2-1.8-.4-2 .4 0 1.1.8 1.1 1.3 1.7z" class="st2"/>
    <path id="path1215" d="M270.5 363.7l.1.4c.4.1 3.8 0 4.8 0 .5 0 1.1.2 1.1-.4-.4-.4-2.4-.2-3-.2-.4 0-2.7-.1-3 .2z" class="st3"/>
    <path id="path1217" d="M274.8 346.9v.5c-.4.3-.9.1-1.3.2v.5c.6.2 1.9 0 2-.7.2-1.3-.9-1-1.5-1.4v-.4c.4-.3.7-.1 1.1-.2v-.5c-.7-.1-1.7 0-1.8.9 0 .7 1 .7 1.5 1.1z" class="st2"/>
    <path id="path1219" d="M313.1 363.9c.3.4 2.2.3 3 .3h1.7c.6 0 1.2.2 1.3-.4-.3-.4-.8-.3-1.3-.3h-3.4c-.5 0-1.1-.2-1.3.4z" class="st3"/>
    <path id="path1221" d="M291.8 363.8c.2.6.8.4 1.3.4h3.4c.6 0 1.2.2 1.3-.4-.3-.4-.8-.3-1.3-.3h-3.3c-.5 0-1.1-.1-1.4.3z" class="st3"/>
    <path id="path1223" d="M278.6 340.6c.6-.3 1.2.3 1.7.3.1-.7 0-1.4 0-2 0-.7.2-1.1.1-2-.3.4-1.8 3.4-1.8 3.7z" class="st3"/>
    <path id="path1225" d="M289.1 315.8v.4c.5.1.3 0 .8 0l.6 2.9.7-.1c.1-.4-.5-2.3-.5-3l.6-.2v-.5c-.4 0-1.9.3-2.2.5z" class="st2"/>
    <path id="polygon1227" class="st2" d="M305.1 318.1l.6.3.3-.4-2-1-.3.4.6.4-1.3 2.7.7.4z"/>
    <path id="path1229" d="M295.8 315.6c.4.1.3.1.7.1 0 .2-.1 1.2-.1 1.5 0 .3-.2 1.3-.1 1.5.3 0 .5 0 .8.1l.2-2.2c0-.4 0-.4.1-.8h.7v-.5c-.8-.1-1.5-.1-2.2-.2z" class="st2"/>
    <path id="path1231" d="M269 352.4c.4.6 1.5.4 2.1.2.1-.4 0-1.5.1-2.1-.4 0-1 .4-1.4.6-.6.5-.8.6-.8 1.3z" class="st3"/>
    <path id="path1233" d="M304 355.8c.2.9 2.9 4.9 3.6 5v-.9c-.8-.8-2.8-3.5-3.2-4.5z" class="st3"/>
    <path id="path1235" d="M274.6 339.4h.3c.2-.6-.1-1.2.3-1.8.3-.5.8-.8 1.3-.4 0 .5-.7.5-1.1.9-.2.3-.8 1.3-.1 1.3.1-1.3.1-1 1.1-1.4.8-.3.9-1.1.1-1.4-1.5-.6-2.2 1.8-1.9 2.8z" class="st2"/>
    <path id="path1237" d="M314.1 339.5c.7 0 .2-1.1 0-1.3-.4-.5-1.1-.4-1.1-1 .6-.4 1.1.1 1.3.4.4.7.1 1.3.3 1.8h.3c.3-1.1-.5-3.4-2-2.9-.8.3-.8 1 0 1.4 1 .6 1.1.2 1.2 1.6z" class="st2"/>
    <path id="path1239" d="M317.3 339.4h.3c.2-.6-.1-1.2.3-1.8.3-.5.8-.8 1.3-.4 0 .5-.7.5-1.1.9-.3.3-.8 1.3-.1 1.3.1-1.3.1-1 1.1-1.4 1.7-.7-.3-2.6-1.6-.8-.1.4-.4 1.7-.2 2.2z" class="st2"/>
    <path id="path1241" d="M296 339.5h.3c.2-.3.1-1.3.4-1.9.2-.5 1-.9 1.3-.4.1.7-1.6.3-1.4 2.2h.3c0-1-.2-.8 1.1-1.5 2.3-1-2.4-3.3-2 1.6z" class="st2"/>
    <path id="path1243" d="M271.4 339.5c.7 0 .2-1 0-1.3-.4-.5-1.1-.4-1.1-1 .3-.2.4-.2.7-.1 1.1.5.7 2 .9 2.4.7 0 .1-1.8 0-2-.3-.7-.9-1.1-1.6-1-.8.2-1 1-.2 1.4.3.1.7.2.9.4.5.4.4.6.4 1.2z" class="st2"/>
    <path id="path1245" d="M290.9 337.3c.4.6.6.6 1.2.9.9.4.4.9.7 1.3h.3c.1-1.8-1.3-1.5-1.5-2.3.5-.4 1-.1 1.3.4.5.8.1 1.2.3 1.8h.3c.2-.7-.1-2.1-.6-2.6-.7-.5-1.7-.5-2 .5z" class="st2"/>
    <path id="path1247" d="M301.1 347.1l-.1-.5c-.7.5-1.2.5-1.5-.4-.3-1-.2-1.5.9-1.6l-.1-.4c-3-.2-1.5 4.7.8 2.9z" class="st2"/>
    <path id="path1249" d="M307.2 363.3c.2-.5.3-1.5.3-2.1-.2-.2-.6-.5-.8-.8-.2-.2-.5-.7-.7-.9-.1 1.2-.3 1 .2 2.1.3.5.7 1.4 1 1.7z" class="st3"/>
    <path id="path1251" d="M305.6 321.9l.6.5c.3-.4 1.9-2.6 1.9-3l-.6-.4z" class="st2"/>
    <path id="path1253" d="M308.5 323.5c.2.4.1.3.5.5.8-.2 2.4-1.8 1.4-2.2-.5-.2-1.7 1.1-1.9 1.7z" class="st3"/>
    <path id="path1255" d="M278.8 321.8c-.1.9.9 1.7 1.6 2 .4-.3.3-.1.6-.5 0-.1-1.1-2.6-2.2-1.5z" class="st3"/>
    <path id="polygon1257" class="st2" d="M295.5 345.5l.6-.1v-.4h-1.9v.4h.6v2.8h.7z"/>
    <path id="path1259" d="M316.1 355.3l.6.3-1.2 2.3.6.3 1.2-2.4.6.3.2-.4c-.3-.2-1.6-.8-1.9-.8z" class="st2"/>
    <path id="path1261" d="M309.1 340.4c.6-.5.6-.7 1.5-.7-.1-.4-1.4-2.2-1.7-2.7-.2.5.1 2.7.2 3.4z" class="st3"/>
    <path id="path1263" d="M293.2 315.1c0 .5 0 .4.1.8.1.7-.1 1.2.1 2.7l.7-.1-.1-3.5z" class="st2"/>
    <path id="path1265" d="M286.6 345.7c-.5 0-.3 0-.6-.3l-.3.4c1.4 1.8 2.2-1.2 2.7-2.1l-.6-.3z" class="st2"/>
    <path id="path1267" d="M304.2 351.7c.5.1 1-.2 1.5 0l1-.9c-.6-.1-1.1-.2-1.6-.3-.5-.1-1-.3-1.4-.4.1.5.3 1.4.5 1.6z" class="st3"/>
    <path id="path1269" d="M290.5 384.6c-.3 1.3-1.5.8-1.5.1 0-.4.4-.8.7-.8.5 0 .6.3.8.7zm-1.1-1c-.7.2-1 .7-.8 1.4.4 1.3 2.6.7 2.1-.7-.2-.5-.7-.8-1.1-.8-.3 0-.1.1-.2.1z" class="st2"/>
    <path id="path1271" d="M315.5 316.5c-1.2 0-1.2-1.4 0-1.4.7.2.7 1.2 0 1.4zm-.7-1.7c-1.4.6-.3 2.7 1 2 1.2-.7.4-2.6-1-2z" class="st2"/>
    <path id="path1273" d="M332.4 342.4c0 1.2-1.3 1.1-1.4.3-.2-1 1.2-1.2 1.4-.3zm-1.1-.9c-1.5.6-.6 2.5.7 2.1 1.4-.4.7-2.6-.7-2.1z" class="st2"/>
    <path id="path1275" d="M259.5 333.8c-.4 1.3-1.2.8-1.3.6-.7-.6.5-2 1.3-.6zm-1.2-.8c-.6.2-.9.7-.7 1.4.2.6.9.9 1.5.6 1.3-.5.7-2.6-.8-2z" class="st2"/>
    <path id="path1277" d="M263.5 325.2c-.9-.9.1-2 1-1v.7l-.4.4zm-.1-1.7c-1.3.6-.5 2.6.9 2 1.2-.5.6-2.6-.9-2z" class="st2"/>
    <path id="path1279" d="M257.4 336.7c.9-.4 1.3 1 .5 1.4-.7.3-1.6-.9-.5-1.4zm-.1-.3c-1.6.5-.6 2.6.7 2.1.6-.2.9-.8.7-1.4-.2-.5-.7-.8-1.1-.8-.4 0-.1 0-.3.1z" class="st2"/>
    <path id="path1281" d="M259.6 362.7c-1.2 0-1.2-1.4 0-1.4.3.1.5.4.6.7-.1.4-.2.6-.6.7zm-.5.4c.7 0 1.4-.1 1.4-1.1 0-.3-.2-.7-.4-.9-.3-.3-.6-.2-1-.2-1.1.4-1 1.9 0 2.2z" class="st2"/>
    <path id="path1283" d="M331.9 345.4c.1 0-.1-.2.3 0 .3.1.5.3.5.6.2 1.1-1.4 1.2-1.5.2-.1-.5.2-.6.7-.8zm-.1-.3c-.3.1-.4 0-.7.4-1.3 1.7 2.3 2.8 2 .5-.1-.4-.4-.7-.8-.8-.6-.3-.5-.1-.5-.1z" class="st2"/>
    <path id="path1285" d="M304.1 384.3c-1.2 0-1.1-1.3-.3-1.4 1.1-.1 1.3 1.2.3 1.4zm-.6-1.7c-1.4.6-.4 2.6 1 2 1.2-.6.5-2.6-1-2z" class="st2"/>
    <path id="path1287" d="M311.4 380.9c0 1.2-1.3 1.1-1.4.3-.1-1 1.2-1.2 1.4-.3zm-.9-.9c-.4.1-.4 0-.7.4-.2.3-.2.6-.2.9.3 1.4 2.5 1.1 2.2-.5-.1-.3-.3-.5-.4-.6l-.6-.2h-.3z" class="st2"/>
    <path id="path1289" d="M267.4 373.2c.1 0-.1-.2.3 0 .3.1.4.3.5.6.1.4-.2.8-.6.8-.7.1-1.5-1.1-.2-1.4zm-.2-.4c-.3.1-.4 0-.7.4-.6.9.1 2 1.2 1.7.6-.1.9-.8.8-1.4-.1-.2-.3-.5-.4-.6l-.6-.2c-.4 0-.1.1-.3.1z" class="st2"/>
    <path id="path1291" d="M331.2 349.4c.9-.9 2 .1 1 1h-.7l-.4-.4zm1.7.1c-.3-1-1.6-1.1-2.1-.3-.5 1 .6 2 1.5 1.5.6-.3.6-.7.6-1.2z" class="st2"/>
    <path id="path1293" d="M312.1 314.6c-.8-.2-.8-1.2 0-1.4 1.2 0 1.2 1.4 0 1.4zm.4.4c1.3-.4.9-2.5-.6-2.1-.5.1-.9.7-.8 1.3.2.7.7.8 1.4.8z" class="st2"/>
    <path id="path1295" d="M302.3 309.4c.9.2.8 1.5-.3 1.4-.8 0-.9-1.4.3-1.4zm.1 1.8c1.3-.4.9-2.4-.6-2.1-.5.1-.9.7-.8 1.3.2.8.8.8 1.4.8z" class="st2"/>
    <path id="path1297" d="M260.3 331.4c-1.2 0-1.2-1.4 0-1.4.8.1.8 1.1 0 1.4zm-.6-1.7c-1.4.6-.3 2.7 1 2 1.1-.7.3-2.6-1-2z" class="st2"/>
    <path id="path1299" d="M273.6 314.8c.2-.4.2-.5.6-.6 1.2 0 1.2 1.4 0 1.4-.4-.1-.4-.4-.6-.8zm.4-.9c-.4.2-.4 0-.6.5-.5.9.5 1.9 1.4 1.5 1.3-.5.7-2.6-.8-2z" class="st2"/>
    <path id="path1301" d="M269.7 357c-.1.6.3 1.4.7 1.9h.5l.3-.4c-.1-.4-.5-2-1.2-1.8z" class="st3"/>
    <path id="path1303" d="M265.2 371.9c-1.3 0-1-1.3-.3-1.4 1-.1 1.2 1.2.3 1.4zm-.6-1.7c-1.4.6-.4 2.6 1 2 1.2-.6.4-2.6-1-2z" class="st2"/>
    <path id="path1305" d="M312.4 350.2c.4.7.6 1.1 1.2 1.6.2-.5.2-1.9.1-2.6-.6.3-.8.2-1.3 1z" class="st3"/>
    <path id="path1307" d="M288.5 309.7c0 1.3-1.3 1-1.4.3-.1-1.1 1.2-1.2 1.4-.3zm-1.7.4c.4 1.3 2.4 1 2.1-.6-.1-.6-.8-.9-1.3-.8-.8.2-.8.7-.8 1.4z" class="st2"/>
    <path id="path1309" d="M295.1 308.5c.4.2.7.3.7.8 0 .4-.4.7-.8.7-.7 0-1.3-1.1.1-1.5zm-.3-.2c-.3.1-.4 0-.7.4-.2.3-.3.6-.2.9.1.6.7 1 1.4.8 1-.2 1.2-1.8 0-2.2-.6-.1-.5.1-.5.1z" class="st2"/>
    <path id="path1311" d="M320.9 321.1c-1.3-.4-.8-1.5-.1-1.5.4 0 .8.4.8.7 0 .5-.3.6-.7.8zm-.5-1.8c-.6.3-.9.7-.6 1.4.2.6.9.8 1.4.6 1.4-.4.6-2.6-.8-2z" class="st2"/>
    <path id="path1313" d="M317.4 359l.6.2 1.3-2.9-.6-.3c-.2.3-1.2 2.7-1.3 3z" class="st2"/>
    <path id="path1315" d="M301.2 384.2c0 1.3-1.3 1-1.4.3-.1-1 1.1-1.2 1.4-.3zm-1.8.5c.4 1.3 2.4 1 2.1-.6-.1-.6-.8-.9-1.3-.8-.7.1-.8.6-.8 1.4z" class="st2"/>
    <path id="path1317" d="M308.8 311.7c.5-.2.8.1.9.4.1.4-.1.8-.4.9-.8.3-1.7-.9-.5-1.3zm-.1-.4c-1.6.5-.6 2.6.7 2.1.6-.2.9-.8.7-1.4-.2-.5-.7-.8-1.1-.8-.5 0-.2.1-.3.1z" class="st2"/>
    <path id="path1319" d="M324.3 370.4c-.8-.2-.8-1.2 0-1.4 1.2 0 1.2 1.4 0 1.4zm1.2-.4c0-.6-.1-1.2-.8-1.3-.7-.1-1.2.2-1.4.9-.2 1.2 1.8 1.8 2.2.4z" class="st2"/>
    <path id="path1321" d="M318.3 317.2c.9.3.7 1.5-.2 1.5-.9-.1-1-1.2-.1-1.5zm-.5-.3c-.6.2-.9.7-.6 1.4.3.6.8.8 1.4.6 1.3-.4.6-2.6-.8-2z" class="st2"/>
    <path id="path1323" d="M316.3 347.5h.5c.5-.5.5-1.5.4-2.1-.6-.5-.9 0-1 .5-.1.5-.3 1.2.1 1.6z" class="st3"/>
    <path id="path1325" d="M255.9 351.5c.3-.9 1.5-.7 1.4.3 0 .7-1.4 1-1.4-.3zm1.8.5c0-.7 0-1.2-.8-1.4-.6-.2-1.2.1-1.4.8-.2 1.5 1.8 1.9 2.2.6z" class="st2"/>
    <path id="path1327" d="M321.8 373.1c-.7-.7-.4-1.5.4-1.4.3 0 .6.3.7.7 0 .3-.2.5-.4.8zm0-1.6c-.4.1-.4 0-.6.5-.5 1 .4 1.9 1.4 1.5 1.3-.5.6-2.6-.8-2z" class="st2"/>
    <path id="path1329" d="M285.9 383.4c1.1-.5 1.4 1 .7 1.3-1 .4-1.7-.9-.7-1.3zm0-.4c-1.3.4-.9 2.4.6 2.1.6-.1.9-.8.8-1.3-.2-.8-.7-.8-1.4-.8z" class="st2"/>
    <path id="path1331" d="M293.1 384.2c.9-.4 1.4 1 .5 1.4-.8.2-1.6-.9-.5-1.4zm-.1-.3c-1.5.5-.6 2.5.6 2.1 1.4-.5.8-2.3-.4-2.2-.4 0-.1 0-.2.1z" class="st2"/>
    <path id="path1333" d="M290.7 309.3c.2-.8 1.2-.8 1.4 0 0 1.2-1.4 1.2-1.4 0zm-.4.4c.3 1.1 1.8 1.1 2.1 0 .2-1.3-1.1-1.9-1.9-1-.3.4-.2.5-.2 1z" class="st2"/>
    <path id="path1335" d="M323.4 322.3c1 .3.7 1.5-.2 1.5-.8 0-1-1.2-.1-1.5zm-.5-.3c-1.4.6-.5 2.5.8 2 1.4-.5.5-2.6-.8-2z" class="st2"/>
    <path id="path1337" d="M272.2 316.8c-.4 1.3-1.5.8-1.5.1 0-.4.4-.8.7-.8.5 0 .6.4.8.7zm-1-1c-1.6.7-.6 2.5.7 2.1 1.3-.5.5-2.6-.7-2.1z" class="st2"/>
    <path id="path1339" d="M297.6 384.9c-.1.5-.9.9-1.3.3-.4-.5 0-1.2.7-1.2.5.2.6.4.6.9zm-1-1.1c-1.5.6-.6 2.5.7 2.1 1.3-.5.7-2.7-.7-2.1z" class="st2"/>
    <path id="path1341" d="M284.4 309.9c.9.3.7 1.5-.2 1.5-.9-.1-1-1.2-.1-1.5zm-.5-.3c-.4.2-.4 0-.6.5-.1.3-.2.6 0 .9.2.6.9.8 1.4.6 1.4-.5.6-2.6-.8-2z" class="st2"/>
    <path id="path1343" d="M266 322.4c-.8-.2-.8-1.2 0-1.4 1.2 0 1.2 1.4 0 1.4zm-.3-1.6c-.3.1-.4.1-.6.5-.1.3-.1.5 0 .8.2.6.8.9 1.5.7 1.2-.5.6-2.7-.9-2z" class="st2"/>
    <path id="path1345" d="M326.2 325.7c0 1.1-1.3 1.1-1.5.2-.2-.8 1.2-1.2 1.5-.2zm-1.1-.8c-1.6.6-.5 2.5.7 2.1.6-.2.9-.8.7-1.4-.1-.5-.7-1-1.4-.7z" class="st2"/>
    <path id="path1347" d="M327.2 328.2s.1-.3.5.1c.1.1.2.3.3.4.3 1.5-2.2.8-1.3-.3.3-.2.3-.1.5-.2zm-.1-.3c-.3.1-.5 0-.7.4-.2.2-.3.6-.2.9.3 1.4 2.4 1.2 2.2-.4-.1-.5-.7-.9-1-.9-.4-.1-.1-.1-.3 0z" class="st2"/>
    <path id="path1349" d="M308.1 382.6c-.2.6-.9.9-1.3.3-.4-.7.1-1.2.7-1.2.5.3.6.4.6.9zm-.9-1.1c-.4.1-.4 0-.7.4-.5.9.2 1.9 1.2 1.7.8-.2 1.3-1.3.4-2-.5-.4-.9-.1-.9-.1z" class="st2"/>
    <path id="path1351" d="M298.3 308.9c.9-.4 1.4 1 .5 1.4-.7.3-1.5-.9-.5-1.4zm0-.4c-1.5.6-.6 2.5.7 2.1 1.3-.4.6-2.6-.7-2.1z" class="st2"/>
    <path id="path1353" d="M305.4 310.4c.5-.2.8.1.9.4.1.3-.1.8-.5 1-.6.3-1.6-.9-.4-1.4zm-.1-.3c-.3.1-.4.1-.6.4-.5.8.3 2 1.3 1.7.6-.2.9-.8.7-1.4-.2-.5-.7-.8-1.1-.8-.5 0-.2 0-.3.1z" class="st2"/>
    <path id="path1355" d="M329.6 332.2c-.4 1.9-2.6-.2-.9-.7.6-.1.8.1.9.7zm-1 1h.6c1.2-.3 1-2.1-.3-2.1-1.4 0-1.6 1.8-.3 2.1z" class="st2"/>
    <path id="path1357" d="M277.4 312.5c.5-.2.8.2.9.5.2 1.1-1.2 1.2-1.4.4-.2-.7.1-.8.5-.9zm1.2.9c0-.7 0-1.2-.8-1.4-.6-.2-1.2.1-1.4.8-.2 1.6 1.9 1.9 2.2.6z" class="st2"/>
    <path id="path1359" d="M331.1 354c-1.3-1.3 1-2 1.1-.8 0 .3-.2.5-.4.8zm0-1.7c-.4.1-.4 0-.6.5-.5 1 .4 1.9 1.4 1.5 1.2-.5.6-2.6-.8-2z" class="st2"/>
    <path id="path1361" d="M337.4 353.1c.4 0 2.1-.3 2.4-.5-.3-.2-1.8-1.1-2.2-1.1-.1.5-.2 1.2-.2 1.6z" class="st3"/>
    <path id="polygon1363" class="st2" d="M271.4 345.4l.9 3.1.7-.2-.9-3.1z"/>
    <path id="path1365" d="M330.2 334.8c.1 0-.1-.1.3 0 .2.1.4.4.5.6.1 1.1-1.5 1-1.5.1-.1-.5.2-.6.7-.7zm-.2-.3c-.3.1-.4 0-.7.4-.6.8 0 1.9 1.1 1.8 1-.1 1.2-1.4.5-2l-.6-.2c-.5-.1-.2-.1-.3 0z" class="st2"/>
    <path id="path1367" d="M250.8 331.6c.2.4 0 .1.4.5.3.3 1.2 1.1 1.5 1.1.2-.3.5-1.3.5-1.6z" class="st3"/>
    <path id="path1369" d="M257.2 356c-.4-.2-.5-.1-.6-.6-.1-.3-.1-.5.1-.7.8-.9 2.2.8.5 1.3zm-.3-1.8c-1.5.5-.6 2.5.6 2.1 1-.3 1-1.6.3-2-.5-.3-.7-.2-.9-.1z" class="st2"/>
    <path id="path1371" d="M331 338.3s.1-.2.5.1c.2.1.2.2.3.5.2 1-1.3 1.2-1.4.3-.2-.8.4-.8.6-.9zm0-.3c-.3.1-1.1.1-1 1.2.2 1.4 2.5 1.1 2.2-.4-.1-.5-.4-.9-1-.9-.5 0 0 0-.2.1z" class="st2"/>
    <path id="path1373" d="M279.2 381.2c.1 0-.1-.2.3 0 .1 0 .2.1.3.1.1.1.3.3.3.4.3.9-1.2 1.4-1.5.4-.2-.8.5-.9.6-.9zm-.2-.4c-1.6.6-.6 2.5.7 2.1 1.3-.4.6-2.6-.7-2.1z" class="st2"/>
    <path id="path1375" d="M256.7 341.6c-.8-.2-.8-1.2 0-1.4 1.2 0 1.2 1.4 0 1.4zm-.3-1.7c-1.4.6-.5 2.5.8 2 1.4-.4.7-2.6-.8-2z" class="st2"/>
    <path id="path1377" d="M267.9 319.1c.3-1 1.6-.6 1.5.2-.2.9-1.4.9-1.5-.2zm.4-.9c-1.5.7-.4 2.6.8 2 1.4-.6.5-2.6-.8-2z" class="st2"/>
    <path id="path1379" d="M256.5 348.8c-1.3-.3-.9-1.5-.1-1.5.4 0 .7.3.8.7-.1.5-.4.6-.7.8zm-.5-1.8c-1.5.6-.4 2.6.8 2 .6-.3.8-.8.6-1.4-.1-.4-.8-.8-1.4-.6z" class="st2"/>
    <path id="path1381" d="M261.6 326.8c.2-.1.3-.1.6 0 .5.3.6 1.1-.1 1.3-.7.4-1.6-.8-.5-1.3zm-.1-.3c-1.6.7-.6 2.5.7 2.1 1.4-.5.6-2.7-.7-2.1z" class="st2"/>
    <path id="path1383" d="M280.2 311.6c.3-.9 1.5-.7 1.4.2 0 .9-1.2 1-1.4.1zm1.7.4v-.6c-.3-1.2-2.1-1-2.1.3 0 1.4 1.8 1.5 2.1.3z" class="st2"/>
    <path id="path1385" d="M319.8 359.4l.6.4c.5-.4.9-1.3.9-2-.3-.2-.3-.2-.6-.2-.4.2-.9 1.2-.9 1.8z" class="st3"/>
    <path id="path1387" d="M296.8 344.9c0 .3.3 2.8.4 3 .3.1.3 0 .6 0l-.4-3c-.2-.1-.4-.1-.6 0z" class="st2"/>
    <path id="path1389" d="M282.6 382.4c.1 0-.1-.2.3 0 .3.1.5.3.5.5.2.9-1.2 1.3-1.4.4-.2-.8.5-.9.6-.9zm-.2-.3c-1.6.7-.6 2.5.7 2.1.5-.2.9-.8.7-1.4-.3-.7-.9-.9-1.4-.7z" class="st2"/>
    <path id="path1391" d="M256.4 345.3c.5-.1.7-.3.8-.8-.4-2-2.8.3-.8.8z" class="st3"/>
    <path id="path1393" d="M307 365.2c-.1-.9.2-.8.2-1.6-.1-.2-.6-.8-.8-1.2-.2-.4-.5-1.1-.6-1.4-.3.4.3 1.6.4 2.1.1.4.6 2 .8 2.1z" class="st3"/>
    <path id="path1395" d="M292.7 340.3c.3.4 1.5.2 2 .2.6 0 1.7.2 2.1-.2-.2-.4-1.1-.3-2.1-.3-.5.1-1.5-.1-2 .3z" class="st3"/>
    <path id="path1397" d="M271.4 340.4c.5.3 2.4.2 3.3.2.4 0 .7.1.9-.3-.5-.4-1.5-.2-2.1-.2-.6 0-1.7-.2-2.1.3z" class="st3"/>
    <path id="path1399" d="M314 340.3c.3.4 1.5.2 2 .2.7 0 1.7.2 2.2-.2-.3-.4-1.5-.2-2-.2-.6 0-1.8-.2-2.2.2z" class="st3"/>
    <path id="path1401" d="M307.4 364.1l.7.3c.4-.5.5-2.2.2-2.8-.4.6-.8 1.7-.9 2.5z" class="st3"/>
    <path id="path1403" d="M256.4 345.3c-2-.5.3-2.8.8-.8-.1.5-.2.6-.8.8zm-.3-1.8c-1.5.6-.5 2.4.7 2 .9-.3.9-1.6.1-2-.3-.2-.5-.1-.8 0z" class="st2"/>
    <path id="path1405" d="M279.2 381.2c-.1 0-.8.1-.6.9.3 1 1.7.5 1.5-.4 0-.1-.2-.3-.3-.4-.1-.1-.2-.1-.3-.1-.5-.2-.2 0-.3 0z" class="st3"/>
    <path id="path1407" d="M327.4 363.6c.1.3.2.5.5.6 1.3.4 1.4-1.6.1-1.4-.4.2-.5.4-.6.8z" class="st3"/>
    <path id="path1409" d="M282.6 382.4s-.8.1-.6.9c.3 1 1.7.5 1.4-.4-.1-.3-.3-.5-.5-.5-.5-.1-.2 0-.3 0z" class="st3"/>
    <path id="path1411" d="M331 338.3c-.2 0-.8.1-.6.9.2.9 1.7.7 1.4-.3-.1-.2-.1-.3-.3-.5-.4-.3-.5-.1-.5-.1z" class="st3"/>
    <path id="path1413" d="M331.9 345.4c-.4.1-.7.3-.7.8.1.9 1.7.9 1.5-.2 0-.2-.2-.5-.5-.6-.5-.1-.2 0-.3 0z" class="st3"/>
    <path id="path1415" d="M305.4 310.4c-1.2.5-.2 1.7.5 1.4.3-.1.6-.6.5-1-.2-.2-.5-.6-1-.4z" class="st3"/>
    <path id="path1417" d="M261.6 326.8c-1.1.5-.2 1.7.5 1.4.7-.3.6-1.1.1-1.3-.3-.2-.4-.2-.6-.1z" class="st3"/>
    <path id="path1419" d="M284.4 309.9h-.3c-.9.3-.8 1.4.1 1.5.9 0 1.2-1.3.2-1.5z" class="st3"/>
    <path id="path1421" d="M318.3 317.2h-.3c-.9.3-.8 1.4.1 1.5.9 0 1.2-1.3.2-1.5z" class="st3"/>
    <path id="path1423" d="M327.2 328.2c-.3.1-.2-.1-.5.2-1 1.1 1.6 1.8 1.3.3 0-.2-.2-.3-.3-.4-.4-.3-.5-.1-.5-.1z" class="st3"/>
    <path id="path1425" d="M267.9 319.1c0 1.1 1.3 1.1 1.5.2.2-.9-1.2-1.3-1.5-.2z" class="st3"/>
    <path id="path1427" d="M308.8 311.7c-1.1.5-.2 1.7.5 1.4.4-.2.6-.6.4-.9-.2-.5-.5-.7-.9-.5z" class="st3"/>
    <path id="path1429" d="M330.2 334.8c-.4.1-.8.1-.8.7 0 .9 1.5 1 1.5-.1 0-.3-.2-.5-.5-.6-.3-.1-.2 0-.2 0z" class="st3"/>
    <path id="path1431" d="M329.6 332.2c-.1-.6-.3-.7-.9-.7-1.6.5.5 2.5.9.7z" class="st3"/>
    <path id="path1433" d="M326.2 325.7c-.3-1-1.6-.6-1.5.2.2 1 1.4 1 1.5-.2z" class="st3"/>
    <path id="path1435" d="M323.4 322.3h-.3c-.9.3-.7 1.4.1 1.5.8 0 1.2-1.3.2-1.5z" class="st3"/>
    <path id="path1437" d="M298.3 308.9c-1.1.5-.3 1.7.5 1.4 1-.4.4-1.8-.5-1.4z" class="st3"/>
    <path id="path1439" d="M297.6 384.9c0-.5-.1-.8-.6-.9-.7 0-1.1.7-.7 1.2.4.6 1.2.3 1.3-.3z" class="st3"/>
    <path id="path1441" d="M293.1 384.2c-1.1.5-.3 1.6.5 1.4.9-.4.3-1.8-.5-1.4z" class="st3"/>
    <path id="path1443" d="M285.9 383.4c-1 .4-.2 1.7.7 1.3.6-.3.4-1.8-.7-1.3z" class="st3"/>
    <path id="path1445" d="M256.5 348.8c.4-.2.7-.3.7-.8 0-.4-.4-.7-.8-.7-.8 0-1.2 1.2.1 1.5z" class="st3"/>
    <path id="path1447" d="M263 367.5c-1.3.4-.9 1.5-.1 1.5.4 0 .7-.3.8-.7 0-.4-.4-.5-.7-.8z" class="st3"/>
    <path id="path1449" d="M265.2 371.9c.9-.2.8-1.5-.3-1.4-.7.1-1 1.4.3 1.4z" class="st3"/>
    <path id="path1451" d="M272.2 316.8c-.2-.4-.3-.7-.8-.7-.3 0-.7.4-.7.8 0 .7 1.2 1.3 1.5-.1z" class="st3"/>
    <path id="path1453" d="M308.1 382.6c0-.5-.2-.6-.6-.9-.6.1-1.1.6-.7 1.2.4.6 1.2.3 1.3-.3z" class="st3"/>
    <path id="path1455" d="M277.4 312.5c-.4.2-.6.3-.5.9.2.8 1.6.7 1.4-.4-.1-.3-.4-.7-.9-.5z" class="st3"/>
    <path id="path1457" d="M257.2 356c1.7-.5.4-2.1-.5-1.3-.2.2-.2.5-.1.7.1.4.2.4.6.6z" class="st3"/>
    <path id="path1459" d="M318.8 348.2c.6.2.8.3 1.3-.8.2-.5.2-1-.3-1.1-.3.3-1 1.5-1 1.9z" class="st3"/>
    <path id="path1461" d="M320.9 321.1c.4-.2.7-.3.7-.8 0-.4-.4-.8-.8-.7-.7 0-1.2 1.2.1 1.5z" class="st3"/>
    <path id="path1463" d="M255.9 351.5c0 1.3 1.3 1 1.4.3.2-1-1.1-1.2-1.4-.3z" class="st3"/>
    <path id="path1465" d="M266.8 358.2l.9 2c.5-.2.4-.1.6-.5-.1-.5-.4-1.4-1-1.6z" class="st3"/>
    <path id="path1467" d="M304.1 384.3c.9-.2.8-1.5-.3-1.4-.8.1-.9 1.4.3 1.4z" class="st3"/>
    <path id="path1469" d="M290.5 384.6c-.2-.4-.3-.7-.8-.7-.3 0-.7.4-.7.8 0 .7 1.2 1.2 1.5-.1z" class="st3"/>
    <path id="path1471" d="M295.1 308.5c-1.3.4-.8 1.5-.1 1.5.4 0 .8-.4.8-.7 0-.4-.4-.6-.7-.8z" class="st3"/>
    <path id="path1473" d="M280.2 311.6v.3c.2.9 1.4.8 1.4-.1 0-1-1.2-1.1-1.4-.2z" class="st3"/>
    <path id="path1475" d="M301.2 384.2c-.2-.9-1.5-.8-1.4.3.1.8 1.4 1 1.4-.3z" class="st3"/>
    <path id="path1477" d="M302.3 309.4c-1.2 0-1.1 1.3-.3 1.4 1.1.2 1.2-1.1.3-1.4z" class="st3"/>
    <path id="path1479" d="M267.4 373.2c-1.3.4-.5 1.5.2 1.4.4-.1.7-.5.6-.8-.1-.3-.2-.5-.5-.6-.4-.2-.2-.1-.3 0z" class="st3"/>
    <path id="path1481" d="M290.7 309.3c0 1.2 1.4 1.2 1.4 0-.2-.9-1.2-.8-1.4 0z" class="st3"/>
    <path id="path1483" d="M331.1 354h.7c.2-.3.4-.5.4-.8-.1-1.2-2.4-.5-1.1.8z" class="st3"/>
    <path id="path1485" d="M301.2 362c-.1-.1-1.1-.6-.5-2.3.5-.2.7 0 1.2-.2 0 0-2.1-.5-2.1.7.1.8.5 1.9 1.4 1.8z" class="st3"/>
    <path id="path1487" d="M321.8 373.1h.7c.2-.2.5-.4.4-.8 0-.3-.4-.6-.7-.7-.8.1-1.1.9-.4 1.5z" class="st3"/>
    <path id="path1489" d="M332.4 342.4c-.2-.9-1.5-.8-1.4.3.1.8 1.4.9 1.4-.3z" class="st3"/>
    <path id="path1491" d="M311.4 380.9c-.2-.9-1.5-.8-1.4.3.1.8 1.4.9 1.4-.3z" class="st3"/>
    <path id="path1493" d="M257.4 336.7c-1.1.5-.2 1.7.5 1.4.8-.3.4-1.8-.5-1.4z" class="st3"/>
    <path id="path1495" d="M288.5 309.7c-.2-.9-1.5-.8-1.4.3.1.7 1.4 1 1.4-.3z" class="st3"/>
    <path id="path1497" d="M312.1 314.6c1.2 0 1.2-1.4 0-1.4-.8.2-.8 1.2 0 1.4z" class="st3"/>
    <path id="path1499" d="M276.2 381c.8-.2.8-1.2 0-1.4-1.2 0-1.2 1.4 0 1.4z" class="st3"/>
    <path id="path1501" d="M260.3 331.4c.8-.2.8-1.2 0-1.4-1.2-.1-1.3 1.4 0 1.4z" class="st3"/>
    <path id="path1503" d="M273.6 314.8c.1.4.2.7.6.8 1.2 0 1.2-1.4 0-1.4-.4.1-.3.2-.6.6z" class="st3"/>
    <path id="path1505" d="M260.3 365.4c.2.8 1.2.8 1.4 0 0-1.2-1.4-1.2-1.4 0z" class="st3"/>
    <path id="path1507" d="M266 322.4c1.2 0 1.2-1.4 0-1.4-.8.3-.8 1.2 0 1.4z" class="st3"/>
    <path id="path1509" d="M324.3 370.4c1.2 0 1.2-1.4 0-1.4-.8.2-.8 1.2 0 1.4z" class="st3"/>
    <path id="path1511" d="M256.7 341.6c1.2 0 1.2-1.4 0-1.4-.8.2-.8 1.2 0 1.4z" class="st3"/>
    <path id="path1513" d="M259.6 362.7c.4-.1.5-.3.6-.7-.1-.4-.3-.6-.6-.7-1.2 0-1.2 1.4 0 1.4z" class="st3"/>
    <path id="path1515" d="M259.5 333.8c-.8-1.4-2-.1-1.3.6.1.2.9.8 1.3-.6z" class="st3"/>
    <path id="path1517" d="M315.5 316.5c.8-.2.8-1.2 0-1.4-1.3-.1-1.3 1.4 0 1.4z" class="st3"/>
    <path id="path1519" d="M331.2 349.4v.7l.4.4h.7c.8-1-.2-2.1-1.1-1.1z" class="st3"/>
    <path id="path1521" d="M263.5 325.2h.7l.4-.4v-.7c-1-.9-2 .2-1.1 1.1z" class="st3"/>
    <path id="path1523" d="M276.1 352.2c.3-.2.6-1.3.7-1.6.2-1 .1-1-.7-1.4z" class="st3"/>
    <path id="path1525" d="M302.2 360.1c0 .3.2.6 0 .9.4 0 1.1-.2 1.4-.5l-.1-1.1c-.4.1-1 .5-1.3.7z" class="st3"/>
    <path id="path1527" d="M300.9 360.4c-.1.7 0 1.8 1 1.1.2-.5.2-.8 0-1.3-.4-.1-.8-.1-1 .2z" class="st3"/>
    <path id="path1529" d="M317 339.1c.1-.5-.7-.6-.1-1.9.3-.1.3 0 .5-.2 0-.8-1.3-.6-1.2 1 0 .4.1.4.3.7.2.4.2.5.5.4z" class="st2"/>
    <path id="path1531" d="M274.3 339.1c.1-.5-.7-.6-.1-1.9.3-.1.3 0 .5-.2l-.2-.4c-.8 0-1.1.4-1.1 1.3.2.7.6 1.3.9 1.2z" class="st2"/>
    <path id="path1533" d="M272.1 337c.3.2.7.1.8.7.1.6-.2.9-.2 1.4.7-.1.9-2.3-.1-2.6-.4.1-.5.2-.5.5z" class="st2"/>
    <path id="path1535" d="M293.5 337.1h.5c.6.8.1 1.3.1 2 .7 0 .7-1.2.6-1.8-.2-.7-1.3-1.2-1.2-.2z" class="st2"/>
    <path id="path1537" d="M314.8 337c.3.2.7.1.8.7.1.6-.2.9-.2 1.4.7-.1.9-2.3-.1-2.6-.4.1-.5.2-.5.5z" class="st2"/>
    <path id="path1539" d="M307.4 366l.6-.4.1-1-.8-.2c-.4.5-.2.3-.2.8.1.4-.1.4.3.8z" class="st3"/>
    <path id="path1541" d="M295.7 339.2c0-.5-.4-.7-.3-1.2 0-.8.4-.7.8-.9 0-.4-.1-.4-.5-.4-1.1.2-.9 2.3 0 2.5z" class="st2"/>
    <path id="path1543" d="M330.1 357.2c.2 0 1.1-.2 1.3-.2.2-.5-.3-1-.8-.9-.6.1-.8.7-.5 1.1z" class="st3"/>
    <path id="path1545" d="M303.9 363.4v2.2l1.2-3.2c-.3.2-.3.3-.6.5-.2.1-.5.3-.6.5z" class="st3"/>
    <path id="path1547" d="M304.8 355.7l1 1.5c.1-.6.1-1.8-.3-2.2z" class="st3"/>
    <path id="path1549" d="M306.6 352c.4.3.9.7 1.3.6 0-.4-.4-.9-.6-1.2z" class="st3"/>
    <path id="polygon1551" class="st3" d="M306 355l.7.5.7-.7-.3-.6z"/>
    <path id="path1553" d="M313.2 379.4c.1.4.4.7.8.7s.5-.3.7-.7z" class="st3"/>
    <path id="path1555" d="M326.9 367.3l-1.1-.8c-.1.7.5 1.3 1.1.8z" class="st3"/>
    <path id="path1557" d="M258.7 359.2c-.3-.3-.8-.5-1.2-.5 0 .3.1.6.4.7.3.1.5 0 .8-.2z" class="st3"/>
    <path id="path1559" d="M323.8 350.7l.3.4c.4 0 .3 0 .5-.2 0-.3 0-.3-.2-.6z" class="st3"/>
    <path id="path1561" d="M306.1 351.8c.7.1.9-.7.9-.8-.3-.1-.9.7-.9.8z" class="st3"/>
    <path id="path1563" d="M307.3 366.2l.4.8c.1-.2.2-.8.2-1.1z" class="st3"/>
    <path id="path1565" d="M313.6 355.5c.2.2.3.3.6.4l.3-1z" class="st3"/>
    <path id="path1567" d="M329.4 360.9c.7.1 1-.2 1-.9z" class="st3"/>
    <path id="path1569" d="M305.8 352.6l-.2.1c.1-.1 0-.1.2-.1zm-.3.1c.2.3.3.4.7.1-.2-.3-.1-.1-.4-.2h.4c-.2-.3-.5-.3-.7.1z" class="st2"/>
    <path id="path1571" d="M304.7 355.4l.6-.6-.4-.2c-.2.3-.4.5-.2.8z" class="st3"/>
    <path id="path1573" d="M273 339.7h1c-.3-.4-.9-.5-1 0z" class="st3"/>
    <path id="path1575" d="M294.3 339.7h1.1c-.4-.4-.9-.4-1.1 0z" class="st3"/>
    <path id="path1577" d="M315.6 339.7h1.1c-.3-.4-.8-.4-1.1 0z" class="st3"/>
    <path id="path1579" d="M306.7 353.7c.3-.2.2-.5.2-.9h-.1c0 1-.4.5-.1.9z" class="st2"/>
    <path id="path1581" d="M305.1 353.8c.2.1.4.2.7 0-.2-.1-.5-.1-.7 0z" class="st2"/>
    <path id="path1583" d="M300.7 360l.5-.1c.3 0 .2.1.4-.1-.5 0-.5-.1-.9.2z" class="st3"/>
    <path id="path1585" d="M305.3 354.1c.2.1.1.1.4 0-.3-.1-.2-.2-.4 0z" class="st2"/>
    <path id="path1587" d="M304.5 352.7l.3-.1c-.6-.1-.2 0-.3.1z" class="st3"/>
    <path id="path1589" d="M242.5 389.8l2-1.8.2.2c-.4.5-.7 1.1-.7 1.7 0 .6.1 1.1.5 1.5.3.3.5.5.9.5.3 0 .6 0 .8-.2.1-.1.2-.2.3-.4.1-.2.1-.5.1-.8 0-.2-.1-.7-.3-1.4-.3-1-.3-1.8-.3-2.3.1-.5.3-.9.7-1.3.5-.4 1.1-.6 1.8-.5.7.1 1.3.4 1.8 1 .2.2.3.4.4.6.1.2.2.5.3.8.1.2.1.3.2.4.1.1.2.1.3.2h.4l.1.2-2.3 2-.1-.2c.5-.7.8-1.4.8-2 0-.7-.2-1.2-.5-1.6-.3-.3-.6-.5-1-.6-.4 0-.6 0-.9.2-.1.1-.2.3-.3.5-.1.2-.1.4-.1.7 0 .3.1.7.2 1.2.2.8.3 1.4.3 1.8 0 .4 0 .8-.2 1.1-.1.3-.3.6-.6.9-.5.4-1 .6-1.7.5-.6-.1-1.2-.4-1.7-.9-.2-.2-.3-.4-.4-.6-.1-.2-.2-.4-.2-.7-.1-.3-.1-.5-.2-.5-.1-.1-.1-.1-.2-.1s-.2.1-.4.2z" class="st4"/>
    <path id="path1591" d="M240 385.3l2.7-1.9-.1-.1c-.3-.4-.6-.6-1-.6s-.9.1-1.4.4l-.1-.2 3.4-2.4.1.2c-.3.3-.6.6-.7.9-.2.3-.2.5-.2.8 0 .2.2.5.4.8l1.8-1.3c.4-.3.6-.4.6-.5.1-.1.1-.2.1-.3 0-.1-.1-.3-.2-.5l-.3-.4c-.4-.6-.9-1-1.4-1.2-.5-.2-1.2-.1-1.8.1l-.1-.2 2.3-1.2 3.9 5.6-.2.1-.2-.2c-.1-.2-.3-.3-.4-.4-.1-.1-.2-.1-.4 0-.1 0-.3.1-.6.4l-4.3 3c-.3.2-.5.3-.5.4-.1.1-.1.2-.1.4s.1.4.2.6l.2.2-.2.1-3.8-5.5 1.9-1.3.1.2c-.4.4-.7.8-.7 1.1-.1.3-.1.7 0 1 .1.2.3.6.6 1.1z" class="st4"/>
    <path id="path1593" d="M232.5 373.7l2.5-1.2.1.2c-.6.5-.9 1-1 1.6-.1.6-.1 1.2.2 1.7.2.4.6.8 1 1 .4.2.9.3 1.4.3.6 0 1.3-.2 1.9-.6.6-.3 1.2-.7 1.6-1.1.4-.4.7-.9.8-1.4.1-.5 0-1-.3-1.5-.2-.4-.5-.8-.9-1.1-.4-.3-.9-.5-1.6-.7l.6-.3c.6.2 1.1.4 1.5.8.4.3.8.8 1 1.4.4.8.6 1.5.6 2.2 0 .7-.2 1.4-.6 2-.4.6-.9 1.1-1.6 1.4-.7.3-1.4.5-2.2.4-.8 0-1.5-.3-2.1-.7-.6-.4-1.1-1-1.5-1.7-.3-.5-.4-1.1-.5-1.7 0-.4-.1-.6-.1-.7-.1-.1-.1-.2-.3-.2-.1 0-.3 0-.5-.1z" class="st4"/>
    <path id="path1595" d="M235.1 367.5l2.1-.7c.4-.1.7-.2.7-.3.1-.1.1-.2.2-.3 0-.1 0-.4-.1-.7l.2-.1 1.3 3.9-.2.1c-.1-.3-.2-.6-.3-.7-.1-.1-.2-.2-.3-.2-.1 0-.4 0-.8.2l-4.9 1.7c-.4.1-.7.2-.7.3-.1.1-.1.2-.2.3 0 .1 0 .4.1.7l-.2.1-1.2-3.5c-.3-.9-.5-1.6-.5-2.1s.1-.9.3-1.3c.2-.4.6-.6 1.1-.8.6-.2 1.1-.1 1.6.1.3.2.6.5.9.9l1.9-2.7c.2-.3.4-.6.4-.7.1-.2.1-.4 0-.6l.2-.1.8 2.4-2.5 3.6zm-3.7 1.3l3.3-1.1-.1-.3c-.2-.5-.4-.9-.5-1.1-.2-.2-.4-.4-.7-.4-.3-.1-.6 0-1 .1-.6.2-1 .5-1.1.8-.2.4-.2.8 0 1.4z" class="st4"/>
    <path id="path1597" d="M228.9 359.2l3.2-.6v-.2c-.1-.5-.3-.8-.7-1-.4-.2-.8-.2-1.5-.2v-.2l4.1-.8v.2c-.4.1-.8.3-1 .5-.3.2-.4.4-.5.6-.1.2-.1.5 0 .9l2.2-.4c.4-.1.7-.1.8-.2.1-.1.2-.1.2-.2v-.5l-.1-.5c-.1-.7-.4-1.3-.8-1.7-.4-.4-1-.6-1.7-.7v-.2l2.6-.1 1.2 6.8h-.2v-.3c0-.2-.1-.4-.2-.5-.1-.1-.2-.1-.3-.2-.1 0-.3 0-.7.1l-5.1.9c-.4.1-.6.1-.6.1l-.3.3c-.1.2-.1.4-.1.6v.3h-.2l-1.2-6.5 2.3-.4v.2c-.5.2-.9.4-1.1.7-.2.2-.3.6-.4 1 0 .2 0 .6.1 1.2z" class="st4"/>
    <path id="path1599" d="M227.3 345.8h2.2v.2c-.5.1-.8.3-1.1.4-.2.2-.4.4-.5.6-.1.1-.1.4-.1.8v.6l6.1-.1c.4 0 .7 0 .8-.1.1 0 .2-.1.3-.3.1-.1.1-.3.1-.5v-.3h.2l.1 4.2h-.2v-.3c0-.2 0-.4-.1-.6-.1-.1-.2-.2-.3-.2-.1 0-.3-.1-.7 0l-6.1.1v.6c0 .5.1.9.4 1.2.3.3.8.5 1.4.6v.2h-2.2z" class="st4"/>
    <path id="path1601" d="M233.3 340.9l-.2 2.8.7.4c.2.1.5.2.6.2.2 0 .4-.1.5-.2.1-.1.1-.4.2-.8h.2l-.2 2.6h-.2c0-.3-.1-.5-.3-.7-.2-.2-.6-.5-1.1-.8l-6.1-3.4v-.1l6.7-2.3c.6-.2 1-.4 1.2-.6.1-.1.2-.3.3-.5h.2l-.3 3.8h-.2v-.2c0-.3 0-.5-.1-.7-.1-.1-.1-.1-.3-.2h-.2s-.2.1-.5.1zm-.4.2l-2.8 1 2.6 1.4z" class="st4"/>
    <path id="path1603" d="M233.1 333.5l2.2.5c.4.1.7.1.8.1.1 0 .2-.1.3-.2.1-.1.2-.3.3-.7h.2l-.9 4-.2-.1c.1-.4.1-.6.1-.8 0-.1-.1-.3-.2-.3-.1-.1-.4-.2-.8-.3l-5-1.2c-.4-.1-.7-.1-.8-.1-.1 0-.2.1-.3.2-.1.1-.2.3-.3.7l-.2-.1.8-3.6c.2-.9.4-1.6.7-2 .2-.4.6-.7 1-.9.4-.2.9-.2 1.3-.1.6.1 1 .4 1.3.9.2.3.3.7.3 1.2l3.1-1.3.8-.4c.2-.1.3-.3.3-.5l.2.1-.6 2.4-4.1 1.7zm-3.8-.9l3.4.8.1-.3c.1-.5.2-.9.1-1.2 0-.3-.2-.5-.4-.7-.2-.2-.5-.4-.9-.5-.6-.1-1.1-.1-1.4.1-.3.2-.6.6-.7 1.2z" class="st4"/>
    <path id="path1605" d="M233.5 318.5l.2.1c-.1.3-.1.5 0 .6.1.2.4.7.9 1.4l2.1 2.7 1.8.7c.4.1.6.2.7.2.1 0 .2-.1.3-.1.1-.1.2-.2.3-.4l.2-.4.2.1-1.6 4.2-.2-.1.2-.4c.1-.2.1-.4.1-.6 0-.1-.1-.2-.2-.3-.1-.1-.3-.2-.7-.3l-1.5-.6-3.9.5c-.8.1-1.2.2-1.4.3-.2.1-.3.3-.4.5l-.2-.1 1.4-3.6.2.1c-.1.2-.1.4-.1.5 0 .1.1.2.1.2.1.1.5 0 1.2-.1l3-.4-1.7-2.2c-.4-.5-.7-.9-.9-.9h-.3c-.1.1-.3.3-.4.6l-.2-.1z" class="st4"/>
    <path id="path1607" d="M237.9 310.8c.6-1.1 1.5-1.8 2.6-2 1.1-.2 2.1 0 3.1.6.8.5 1.4 1.3 1.8 2.2.4 1.2.3 2.4-.5 3.6-.8 1.2-1.8 1.9-3 2-1 .1-1.9-.1-2.8-.7-1-.6-1.6-1.5-1.8-2.6-.3-1.1-.1-2.2.6-3.1zm.3.1c-.4.6-.4 1.3 0 2 .3.6 1 1.2 2 1.8 1.1.7 2.1 1.1 2.9 1 .6 0 1-.3 1.3-.8.2-.3.3-.7.3-1 0-.4-.2-.9-.6-1.3-.4-.5-.9-.9-1.7-1.4-.9-.6-1.6-.9-2.1-1-.5-.1-1-.1-1.3 0-.3.1-.5.4-.8.7z" class="st4"/>
    <path id="path1609" d="M243.7 303.8l2.5 2.1.1-.2c.2-.3.4-.5.4-.8 0-.3.1-.5 0-.8-.1-.3-.3-.6-.6-.9l.1-.2 3 2.6-.1.2c-.6-.4-1.1-.6-1.5-.5-.4.1-.7.3-1 .6l-.1.2 1.8 1.6c.3.3.5.4.6.4h.4c.1-.1.3-.2.4-.3l.2-.2.2.1-2.7 3.2-.2-.1.2-.2c.1-.2.2-.3.3-.5 0-.1 0-.2-.1-.4 0-.1-.2-.3-.5-.5l-4-3.4c-.3-.3-.5-.4-.6-.4h-.4c-.1 0-.3.2-.4.3l-.2.2-.2-.1 4.4-5.1 1.7 1.5-.2.2c-.4-.3-.8-.5-1.2-.5-.3 0-.7.1-1.1.4-.2.1-.5.5-.9.9z" class="st4"/>
    <path id="path1611" d="M252.9 294l1.8 2-.2.2c-.5-.4-1.1-.7-1.7-.7-.6 0-1.1.1-1.5.5-.3.3-.5.5-.5.9 0 .3 0 .6.2.8.1.1.2.2.4.3.2.1.5.1.8.1.2 0 .7-.1 1.4-.3 1-.3 1.8-.3 2.3-.3.5.1.9.3 1.3.7.4.5.6 1.1.5 1.8-.1.7-.4 1.3-1 1.8-.2.2-.4.3-.6.4-.2.1-.5.2-.8.3-.2.1-.3.1-.4.2-.1.1-.1.2-.2.3v.4l-.2.1-2-2.3.2-.1c.7.5 1.4.8 2 .8.7 0 1.2-.2 1.6-.5.3-.3.5-.6.6-1 0-.4 0-.6-.2-.9-.1-.1-.3-.2-.5-.3-.2-.1-.4-.1-.7-.1-.3 0-.7.1-1.2.2-.8.2-1.4.3-1.8.3-.4 0-.8 0-1.1-.2-.3-.1-.6-.3-.9-.6-.4-.5-.6-1-.5-1.7.1-.6.4-1.2.9-1.7.2-.2.4-.3.6-.4.2-.1.4-.2.7-.2.3-.1.5-.1.5-.2.1-.1.1-.1.1-.2s-.1-.2-.2-.4z" class="st4"/>
    <path id="path1613" d="M261.2 288.8l1.1 1.8-.2.1c-.4-.4-.7-.6-.9-.7-.2-.1-.5-.1-.8-.1-.2 0-.4.1-.7.3l-.5.3 3.3 5.2c.2.3.4.5.5.6.1.1.2.1.4.1s.3-.1.5-.2l.2-.1.1.2-3.5 2.2-.1-.2.2-.1c.2-.1.3-.3.4-.4.1-.1.1-.2.1-.4 0-.1-.1-.3-.3-.7l-3.3-5.2-.5.3c-.5.3-.7.6-.8.9-.1.5-.1.9.2 1.5l-.2.1-1.1-1.8z" class="st4"/>
    <path id="path1615" d="M268.5 291.4l-2.5 1.3.1.8c0 .3.1.5.1.6.1.2.3.3.5.3.1 0 .4-.1.8-.2l.1.2-2.4 1.2-.1-.2c.2-.2.4-.4.5-.6.1-.3.1-.7.1-1.4l-.3-6.9h.1l5.5 4.5c.5.4.9.7 1.1.7.2 0 .4 0 .6-.1l.1.2-3.4 1.7-.1-.2.1-.1c.3-.1.4-.3.5-.4.1-.1 0-.2 0-.3 0-.1-.1-.1-.1-.2 0 0-.1-.1-.4-.3zm-.4-.3l-2.3-1.9.1 3z" class="st4"/>
    <path id="path1617" d="M276.7 282.2l.7 2-.2.1c-.3-.4-.5-.7-.7-.9-.2-.2-.5-.3-.8-.3-.2 0-.4 0-.8.1l-.6.2 2 5.8c.1.4.2.6.3.7.1.1.2.1.3.2.2 0 .3 0 .5-.1l.3-.1.1.2-3.9 1.3-.1-.2.3-.1c.2-.1.4-.2.5-.3.1-.1.1-.2.1-.3 0-.1 0-.3-.2-.7l-2-5.8-.5.2c-.5.2-.8.4-1 .7-.2.4-.3.9-.2 1.5l-.2.1-.7-2z" class="st4"/>
    <path id="path1619" d="M281.5 281.7l.6 3.2h.2c.5-.1.8-.3 1-.7.2-.4.2-.8.2-1.5h.2l.8 4.1h-.2c-.1-.4-.3-.8-.5-1-.2-.3-.4-.4-.6-.5-.2-.1-.5-.1-.9 0l.4 2.2c.1.4.1.7.2.8.1.1.1.2.2.2h.5l.5-.1c.7-.1 1.3-.4 1.7-.8.4-.4.6-1 .7-1.7h.2l.1 2.6-6.8 1.2v-.2h.3c.2 0 .4-.1.5-.2.1-.1.1-.2.2-.3 0-.1 0-.3-.1-.7l-.9-5.1c-.1-.4-.1-.6-.1-.6l-.3-.3c-.2-.1-.4-.1-.6-.1h-.3v-.2l6.5-1.2.4 2.3h-.2c-.2-.5-.4-.9-.7-1.1-.2-.2-.6-.3-1-.4-.2 0-.6 0-1.2.1z" class="st4"/>
    <path id="path1621" d="M296 283.8c.8.2 1.3.4 1.6.7.4.4.6.8.6 1.4 0 .6-.3 1.1-.8 1.5-.6.5-1.5.7-2.6.7l-4-.1v-.2c.4 0 .6 0 .7-.1l.3-.3c.1-.1.1-.4.1-.8l.1-5.2c0-.4 0-.7-.1-.8 0-.1-.1-.2-.3-.3-.1-.1-.4-.1-.7-.1v-.2l3.8.1c.9 0 1.6.1 1.9.3.4.2.7.4.9.7.2.3.3.7.3 1 0 .4-.2.7-.4 1-.2.3-.7.5-1.4.7zm-2.2-.2c.6 0 1 0 1.2-.2.3-.1.5-.3.6-.5.1-.2.2-.5.2-.9s-.1-.6-.2-.9c-.1-.2-.3-.4-.6-.5-.3-.1-.7-.2-1.2-.2zm0 .4l-.1 2.6v.3c0 .2 0 .4.2.5.1.1.3.2.5.2.3 0 .6-.1.9-.2.3-.1.5-.3.6-.6.1-.3.2-.6.2-.9 0-.4-.1-.7-.2-1-.2-.3-.4-.5-.7-.6-.3-.2-.8-.3-1.4-.3z" class="st4"/>
    <path id="path1623" d="M302.2 284.9l-.3 2.2c-.1.4-.1.7 0 .8 0 .1.1.2.2.3.1.1.4.1.7.2v.2l-4-.5v-.2h.8c.1 0 .2-.1.3-.2.1-.1.1-.4.2-.8l.7-5.1c.1-.4.1-.7 0-.8 0-.1-.1-.2-.2-.3-.1-.1-.4-.1-.7-.2v-.2l3.7.5c1 .1 1.6.3 2.1.5.4.2.8.5 1 .9.2.4.3.8.3 1.3-.1.6-.3 1-.8 1.4-.3.2-.7.3-1.2.4l1.6 2.9c.2.4.4.6.4.7.1.1.3.2.5.3v.2l-2.5-.3-2.1-3.9zm.5-3.8l-.4 3.5h.3c.5.1.9.1 1.2 0 .3-.1.5-.2.7-.5.2-.2.3-.6.4-1 .1-.6 0-1.1-.3-1.4-.2-.3-.7-.5-1.3-.6z" class="st4"/>
    <path id="path1625" d="M312.5 288.6l-2.7-.8-.5.7c-.2.2-.3.4-.3.6-.1.2 0 .4.1.5.1.1.3.2.7.3l-.1.2-2.5-.7.1-.2c.3 0 .5 0 .8-.2.2-.1.6-.5 1-1l4.4-5.4h.1l1 7.1c.1.7.2 1.1.3 1.3.1.2.3.3.5.4l-.1.2-3.7-1 .1-.2h.2c.3.1.5.1.7.1.1 0 .2-.1.2-.2v-.2s0-.2-.1-.5zm0-.5l-.4-3-1.9 2.3z" class="st4"/>
    <path id="path1627" d="M315.6 291.9l.1-.2.2.1c.2.1.4.1.5.1.1 0 .3-.1.4-.2.1-.1.2-.3.4-.7l2.2-4.8c.2-.4.3-.6.3-.7 0-.1 0-.2-.1-.4-.1-.1-.2-.2-.4-.3l-.2-.1.1-.2 3.2 1.5c.9.4 1.5.8 1.9 1.3.5.6.8 1.2.9 2 .1.7-.1 1.5-.4 2.2-.2.5-.5.9-.9 1.3s-.7.6-1.1.8c-.4.2-.8.2-1.2.3-.4 0-.9 0-1.4-.2-.2-.1-.6-.2-1.1-.4zm5.9-5.6l-2.6 5.6c-.1.3-.2.5-.2.6 0 .1 0 .2.1.2.1.1.2.2.4.3.6.3 1.1.3 1.6 0 .7-.4 1.3-1.1 1.8-2.3.4-.9.6-1.7.6-2.4 0-.5-.2-1-.5-1.3-.3-.1-.7-.4-1.2-.7z" class="st4"/>
    <path id="path1629" d="M330.6 296.1l-1.3 1.8c-.3.3-.4.6-.4.7 0 .1 0 .2.1.4l.5.5-.1.2-3.3-2.4.1-.2c.3.2.5.3.7.4.1 0 .3 0 .4-.1.1-.1.3-.3.5-.6l3-4.2c.3-.3.4-.6.4-.7 0-.1 0-.2-.1-.4l-.5-.5.1-.2 3 2.2c.8.6 1.3 1 1.6 1.4.3.4.4.8.5 1.2 0 .5-.1.9-.4 1.3-.3.5-.8.7-1.4.8-.4 0-.8 0-1.2-.2v4.1c.1.2.2.4.3.5l-.1.2-2-1.5.1-4.4zm2.3-3.2l-2 2.8.3.2c.4.3.8.5 1.1.6.3.1.6.1.8-.1.3-.1.5-.3.8-.7.4-.5.5-.9.4-1.3-.1-.4-.3-.8-.9-1.2z" class="st4"/>
    <path id="path1631" d="M338.1 304.4l-1.9-2-.8.3c-.3.1-.5.2-.6.3-.2.2-.2.3-.2.5 0 .1.2.3.4.7l-.2.1-1.8-1.9.2-.1c.2.2.5.3.7.3.3 0 .7-.1 1.3-.3l6.6-2.3.1.1-2.8 6.6c-.3.6-.4 1.1-.4 1.3 0 .2.1.4.2.6l-.2.1-2.6-2.8.2-.1.1.1c.2.2.4.4.5.4.1 0 .2 0 .3-.1.1 0 .1-.1.1-.2l.2-.4zm.2-.5l1.2-2.7-2.8 1z" class="st4"/>
    <path id="path1633" d="M346.9 306.5l-2.6 2 .1.2c.2.3.4.5.7.6.2.1.5.1.8.1.3 0 .6-.2 1-.4l.1.2-3.1 2.5-.1-.2c.5-.5.8-1 .8-1.4 0-.4-.2-.8-.4-1.1l-.1-.2-1.9 1.5c-.3.3-.5.4-.6.5-.1.1-.1.2 0 .4 0 .1.1.3.2.5l.2.2-.2.1-2.6-3.3.2-.1.2.2c.1.2.3.3.4.4h.4c.1 0 .3-.2.6-.4l4.1-3.2c.3-.3.5-.4.6-.5.1-.1.1-.2 0-.4 0-.1-.1-.3-.2-.5l-.2-.2.2-.1 4.2 5.3-1.8 1.4-.1-.2c.4-.4.6-.7.7-1.1.1-.3 0-.7-.2-1.1-.1-.2-.3-.6-.7-1.1z" class="st4"/>
    <path id="path1635" d="M351.5 313.4l-2.8 1.6.1.2c.2.3.4.5.6.7.2.1.5.2.7.2.3 0 .6-.1 1-.2l.1.2-3.5 2-.1-.2c.6-.4.9-.9 1-1.3 0-.4 0-.8-.2-1.2l-.1-.2-2.1 1.2c-.4.2-.6.3-.6.4-.1.1-.1.2-.1.4s.1.3.2.5l.1.2-.2.1-2.1-3.6.2-.1.1.2c.1.2.2.3.4.4.1.1.2.1.4.1.1 0 .3-.1.7-.3l4.5-2.6c.4-.2.6-.3.6-.4.1-.1.1-.2.1-.4s-.1-.3-.2-.5l-.1-.2.2-.1 3.3 5.8-2 1.1-.1-.2c.4-.3.7-.6.8-1 .1-.3.1-.7 0-1.1l-.6-1.2z" class="st4"/>
    <path id="path1637" d="M355.4 320.9l-3 1.2.1.1c.2.5.5.7.8.8.4.1.9.1 1.5-.1l.1.2-3.9 1.5-.1-.2c.4-.2.7-.4.9-.7.2-.2.3-.5.3-.7 0-.2 0-.5-.2-.9l-2.1.8c-.4.2-.6.3-.7.4-.1.1-.1.2-.1.3 0 .1 0 .3.1.5l.2.4c.3.7.7 1.2 1.1 1.5.5.3 1.1.4 1.8.3l.1.2-2.5.6-2.6-6.4.2-.1.1.2c.1.2.2.4.3.5.1.1.2.1.3.1.1 0 .3-.1.7-.2l4.9-1.9c.3-.1.5-.2.6-.3.1-.1.2-.2.2-.3 0-.2 0-.4-.1-.6l-.1-.2.2-.1 2.5 6.2-2 1-.1-.2c.5-.3.8-.6 1-.9.2-.3.2-.6.2-1 0-.2-.1-.6-.4-1.2z" class="st4"/>
    <path id="path1639" d="M358.8 329.3l-3.9 4.9 3.3-.8c.5-.1.8-.2.9-.4.2-.2.2-.6.1-1h.2l.6 2.6h-.2c-.1-.3-.2-.5-.3-.6-.1-.1-.2-.2-.4-.2s-.4 0-.8.1l-6.5 1.5v-.2l5.3-6.7-4.9 1.1c-.4.1-.7.3-.8.5-.1.2-.1.5-.1.8v.2h-.2l-.6-2.7h.2c.1.4.3.7.5.8.2.1.5.1.9.1l5.5-1.3.2-.2c.2-.2.3-.4.3-.5v-.6h.2z" class="st4"/>
    <path id="path1641" d="M361.1 341.1l-2.6.4v-.2c.6-.2 1.1-.5 1.5-1 .3-.5.5-1 .4-1.5-.1-.4-.2-.7-.4-.9-.2-.2-.5-.3-.8-.3-.2 0-.3.1-.5.2s-.3.3-.5.6c-.1.2-.3.6-.5 1.3-.3 1-.7 1.7-1 2-.4.4-.8.6-1.3.7-.7.1-1.3-.1-1.8-.6s-.9-1.1-1-1.9v-.7c0-.2.1-.5.2-.9.1-.2.1-.4.1-.5 0-.1-.1-.2-.2-.3-.1-.1-.2-.2-.4-.2v-.2l3-.4v.2c-.8.3-1.4.7-1.8 1.2-.4.5-.5 1.1-.5 1.7.1.4.2.8.5 1 .3.2.6.3.9.3.2 0 .4-.1.5-.2.2-.1.3-.3.4-.5.1-.2.3-.6.5-1.1.3-.8.5-1.3.7-1.7.2-.3.5-.6.7-.8.3-.2.6-.3 1-.4.6-.1 1.2.1 1.7.5s.8 1 .9 1.7v.8c0 .2-.1.4-.2.7-.1.3-.1.5-.1.6 0 .1.1.2.1.2.1 0 .2.1.5.2z" class="st4"/>
    <path id="path1643" d="M356.8 346.3h-2.2c-.4 0-.7 0-.8.1l-.3.3c-.1.1-.1.4-.1.7h-.2l-.1-4h.2c0 .4 0 .6.1.7l.3.3c.1.1.4.1.8.1l5.2-.1c.4 0 .7 0 .8-.1l.3-.3c.1-.1.1-.4.1-.7h.2l.1 3.5c0 1.1-.2 2-.6 2.5-.4.5-.9.8-1.5.8-.5 0-1-.1-1.3-.5-.4-.3-.6-.8-.8-1.3-.2-.4-.2-1.1-.2-2zm3.8 0l-3.4.1v.3c0 .5.2.8.4 1.1.3.3.7.4 1.3.4.6 0 1-.1 1.3-.4.3-.3.4-.7.4-1.2z" class="st4"/>
    <path id="path1645" d="M360.2 354.7l-3.2-.4v.2c-.1.5 0 .9.3 1.1.3.3.7.5 1.3.6v.2l-4.1-.5v-.2c.5 0 .8 0 1.1-.2.3-.1.5-.3.6-.4.1-.2.2-.5.3-.8l-2.2-.3c-.4-.1-.7-.1-.8 0-.1 0-.2.1-.3.2-.1.1-.1.3-.2.5l-.1.5c-.1.7 0 1.3.3 1.8s.8.9 1.4 1.2v.2l-2.5-.7.9-6.8h.2v.3c0 .2 0 .4.1.6 0 .1.1.2.2.3.1.1.3.1.7.2l5.2.7c.4 0 .6.1.7.1.1 0 .3-.1.3-.2.1-.1.2-.3.2-.6v-.3h.2l-.9 6.6-2.3-.3v-.2c.6 0 1-.1 1.3-.3.3-.2.5-.4.7-.8.1-.2.2-.6.3-1.2z" class="st4"/>
    <path id="path1647" d="M354.9 362.6l-2.1-.6c-.4-.1-.7-.2-.8-.1-.1 0-.2.1-.3.2-.1.1-.2.3-.3.7l-.2-.1 1.1-3.9.2.1c-.1.4-.1.6-.1.7 0 .1.1.3.2.3.1.1.3.2.8.3l5 1.4c.4.1.7.2.8.1.1 0 .2-.1.3-.2.1-.1.2-.3.3-.7l.2.1-1 3.6c-.3.9-.5 1.6-.8 2-.2.4-.6.7-1 .9-.4.2-.9.2-1.3.1-.6-.2-1-.5-1.2-1-.2-.3-.2-.7-.2-1.2l-3.1 1.1c-.4.1-.7.3-.8.3-.2.1-.3.3-.3.5l-.2-.1.7-2.4 4.2-1.5zm3.7 1l-3.4-.9-.1.3c-.1.5-.2.9-.2 1.2 0 .3.1.5.3.8.2.3.5.4.9.5.6.2 1.1.1 1.4 0 .4-.2.6-.6.8-1.2z" class="st4"/>
    <path id="path1649" d="M353.8 377.9l-2.6-1.2.1-.2c.8.1 1.5 0 2.1-.3.6-.3 1-.8 1.3-1.3.2-.5.3-1.1.2-1.6-.1-.5-.4-.9-.9-1.3s-1-.7-1.6-1c-.7-.3-1.3-.5-1.9-.6-.6-.1-1.1 0-1.5.3-.4.3-.7.6-1 1.1-.1.2-.1.4-.2.6 0 .2-.1.4-.1.6l1.5.7c.3.1.5.2.6.2.1 0 .2 0 .3-.1.1-.1.2-.2.3-.4l.1-.2.2.1-1.6 3.5-.2-.1c.1-.3.2-.5.1-.6 0-.1-.1-.3-.2-.4-.1-.1-.2-.2-.5-.3l-1.5-.7c0-.6.1-1.1.2-1.7.1-.5.3-1.1.6-1.6a5 5 0 011.1-1.6c.4-.4.8-.7 1.3-.9.5-.2.9-.3 1.4-.3.6 0 1.2.1 1.8.4 1.1.5 1.8 1.3 2.2 2.4.4 1.1.3 2.2-.2 3.4-.2.4-.3.7-.5.9-.1.1-.3.4-.6.7l-.5.5c0 .1-.1.2 0 .3 0 .1.1.3.3.4z" class="st4"/>
    <path id="path1651" d="M350.5 382.2l-2.7-1.7-.1.1c-.3.4-.3.8-.2 1.2.1.4.5.7.9 1.1l-.1.2-3.5-2.2.1-.2c.4.2.8.3 1.1.3.3 0 .6 0 .8-.1.2-.1.4-.3.6-.6l-1.9-1.2c-.4-.2-.6-.4-.7-.4h-.3c-.1.1-.2.2-.3.4l-.3.4c-.4.6-.6 1.2-.5 1.8 0 .6.3 1.1.8 1.7l-.1.2-1.9-1.7 3.7-5.8.2.1-.1.2c-.1.2-.2.4-.2.5 0 .1 0 .2.1.4.1.1.3.2.6.5l4.4 2.8c.3.2.5.3.6.3h.4c.2-.1.3-.2.5-.4l.1-.2.2.1-3.6 5.6-2-1.3.1-.2c.5.2 1 .3 1.3.3.3 0 .6-.2.9-.4.2-.1.4-.5.8-1z" class="st4"/>
    <path id="path1653" d="M342.4 387l-1.7-1.5c-.3-.3-.5-.4-.7-.5h-.4c-.1.1-.3.2-.6.5l-.2-.1 2.6-3.1.2.1c-.2.3-.4.5-.4.6v.4c0 .1.2.3.6.6l3.9 3.4c.3.3.6.4.7.5h.4c.1-.1.3-.2.6-.5l.2.1-2.4 2.8c-.6.7-1.1 1.2-1.5 1.5-.4.3-.8.4-1.3.4s-.9-.2-1.2-.5c-.4-.4-.7-.9-.7-1.4 0-.4.1-.8.3-1.2l-3.3-.3h-.8c-.2 0-.4.1-.5.3l-.2-.1 1.6-1.9 4.4.4zm3 2.6l-2.6-2.3-.2.3c-.4.4-.6.8-.7 1-.1.3-.1.5 0 .8.1.3.3.6.6.8.5.4.9.6 1.3.6s.8-.3 1.2-.8z" class="st4"/>
  </g>
</svg>